<?xml version="1.0" encoding="UTF-8" standalone="no"?>
<svg width="44px" height="44px" viewBox="0 0 44 44" version="1.1" xmlns="http://www.w3.org/2000/svg" xmlns:xlink="http://www.w3.org/1999/xlink">
    <!-- Generator: Sketch 49.3 (51167) - http://www.bohemiancoding.com/sketch -->
    <title>Page 1</title>
    <desc>Created with Sketch.</desc>
    <defs>
        <polygon id="path-1" points="0.0726608522 0 28.1961646 0 28.1961646 40.1551391 0.0726608522 40.1551391"></polygon>
        <polygon id="path-3" points="3.4375e-05 0.0796122116 44 0.0796122116 44 12.546875 3.4375e-05 12.546875"></polygon>
    </defs>
    <g id="Page-1" stroke="none" stroke-width="1" fill="none" fill-rule="evenodd">
        <g id="1_Course_detail" transform="translate(-919.000000, -3265.000000)">
            <g id="Page-1" transform="translate(919.000000, 3265.000000)">
                <path d="M22,10.2666609 C24.0217656,10.2666609 25.6666953,11.9115047 25.6666953,13.9333563 C25.6666953,15.9551219 24.0217656,17.5999656 22,17.5999656 C19.9782344,17.5999656 18.3333047,15.9551219 18.3333047,13.9333563 C18.3333047,11.9115047 19.9782344,10.2666609 22,10.2666609 M22,19.0666609 C24.8306953,19.0666609 27.1333047,16.7632781 27.1333047,13.9333563 C27.1333047,11.1034344 24.8306953,8.79996562 22,8.79996562 C19.1693047,8.79996562 16.8666953,11.1034344 16.8666953,13.9333563 C16.8666953,16.7632781 19.1693047,19.0666609 22,19.0666609" id="Fill-1" fill="#222222"></path>
                <g id="Group-5" transform="translate(7.734375, 0.000000)">
                    <mask id="mask-2" fill="white">
                        <use xlink:href="#path-1"></use>
                    </mask>
                    <g id="Clip-4"></g>
                    <path d="M5.22875547,5.15606094 C7.60845078,2.77713906 10.7712945,1.46667813 14.1358336,1.46667813 C17.5003727,1.46667813 20.6632164,2.77713906 23.0429117,5.15606094 C27.4795211,9.59198281 28.0259117,17.9432172 24.1964508,23.0486781 L14.1358336,37.5782172 L4.05906016,23.0266781 C0.245755469,17.9432172 0.792833594,9.59198281 5.22875547,5.15606094 Z M14.1358336,40.1551391 L25.3859117,23.9066781 C29.6055289,18.2812953 28.9953727,9.03467812 24.0798336,4.11982656 C21.4236773,1.46298281 17.8919898,-1.71875e-05 14.1358336,-1.71875e-05 C10.3796773,-1.71875e-05 6.84798984,1.46298281 4.19183359,4.11913906 C-0.723705469,9.03390469 -1.33386172,18.2805219 2.86891172,23.8839047 L14.1358336,40.1551391 Z" id="Fill-3" fill="#222222" mask="url(#mask-2)"></path>
                </g>
                <g id="Group-8" transform="translate(0.000000, 31.453125)">
                    <mask id="mask-4" fill="white">
                        <use xlink:href="#path-3"></use>
                    </mask>
                    <g id="Clip-7"></g>
                    <path d="M30.8858,0.0853445312 C30.4824953,0.0361882812 30.1187219,0.325110156 30.0718,0.727727344 C30.0248781,1.13034453 30.3123391,1.49480547 30.7141828,1.54172734 C38.4259562,2.44957109 42.5333391,4.89603984 42.5333391,6.31357891 C42.5333391,8.30380547 34.7218781,11.0801883 22.0000344,11.0801883 C9.27810469,11.0801883 1.46664375,8.30380547 1.46664375,6.31357891 C1.46664375,4.89603984 5.57402656,2.44957109 13.2858,1.54172734 C13.6876438,1.49480547 13.9751047,1.12957109 13.9281828,0.727727344 C13.8804875,0.325110156 13.5168,0.0347273437 13.1141828,0.0853445312 C5.39295625,0.994649219 3.4375e-05,3.55550078 3.4375e-05,6.31357891 C3.4375e-05,9.41111016 7.55703438,12.5468836 22.0000344,12.5468836 C36.4430344,12.5468836 44.0000344,9.41111016 44.0000344,6.31357891 C44.0000344,3.55550078 38.6070266,0.994649219 30.8858,0.0853445312" id="Fill-6" fill="#222222" mask="url(#mask-4)"></path>
                </g>
            </g>
        </g>
    </g>
</svg>