<?xml version="1.0" encoding="UTF-8" standalone="no"?>
<svg width="50px" height="42px" viewBox="0 0 50 42" version="1.1" xmlns="http://www.w3.org/2000/svg" xmlns:xlink="http://www.w3.org/1999/xlink">
    <!-- Generator: Sketch 49.3 (51167) - http://www.bohemiancoding.com/sketch -->
    <title>Page 1</title>
    <desc>Created with Sketch.</desc>
    <defs></defs>
    <g id="Page-1" stroke="none" stroke-width="1" fill="none" fill-rule="evenodd">
        <g id="1_Course_detail" transform="translate(-916.000000, -3126.000000)" fill="#222222">
            <g id="Page-1" transform="translate(916.000000, 3126.000000)">
                <path d="M18.0369141,20.8250977 C17.1972656,20.8250977 16.5142578,20.1420898 16.5142578,19.3024414 C16.5142578,18.462793 17.1972656,17.7797852 18.0369141,17.7797852 C18.8764648,17.7797852 19.5595703,18.462793 19.5595703,19.3024414 C19.5595703,20.1419922 18.8764648,20.8250977 18.0369141,20.8250977 M18.0369141,16.3148438 C16.3895508,16.3148438 15.0493164,17.6550781 15.0493164,19.3024414 C15.0493164,20.9498047 16.3895508,22.2900391 18.0369141,22.2900391 C19.6842773,22.2900391 21.0245117,20.9498047 21.0245117,19.3024414 C21.0245117,17.6550781 19.6842773,16.3148438 18.0369141,16.3148438" id="Fill-1"></path>
                <path d="M25.8258789,20.8250977 C24.9861328,20.8250977 24.303125,20.1420898 24.303125,19.3024414 C24.303125,18.462793 24.9862305,17.7797852 25.8258789,17.7797852 C26.6655273,17.7797852 27.3485352,18.462793 27.3485352,19.3024414 C27.3485352,20.1420898 26.6654297,20.8250977 25.8258789,20.8250977 M25.8258789,16.3148438 C24.1785156,16.3148438 22.8381836,17.6550781 22.8381836,19.3024414 C22.8381836,20.9498047 24.1785156,22.2900391 25.8258789,22.2900391 C27.4732422,22.2900391 28.8134766,20.9498047 28.8134766,19.3024414 C28.8134766,17.6550781 27.4732422,16.3148438 25.8258789,16.3148438" id="Fill-3"></path>
                <path d="M18.0369141,28.1126953 C17.1972656,28.1126953 16.5142578,27.4296875 16.5142578,26.5900391 C16.5142578,25.7503906 17.1972656,25.0673828 18.0369141,25.0673828 C18.8764648,25.0673828 19.5595703,25.7503906 19.5595703,26.5900391 C19.5595703,27.4296875 18.8764648,28.1126953 18.0369141,28.1126953 M18.0369141,23.6024414 C16.3895508,23.6024414 15.0493164,24.9426758 15.0493164,26.5900391 C15.0493164,28.2374023 16.3895508,29.5776367 18.0369141,29.5776367 C19.6842773,29.5776367 21.0245117,28.2374023 21.0245117,26.5900391 C21.0245117,24.9426758 19.6842773,23.6024414 18.0369141,23.6024414" id="Fill-5"></path>
                <path d="M25.8258789,28.1126953 C24.9861328,28.1126953 24.303125,27.4296875 24.303125,26.5900391 C24.303125,25.7503906 24.9862305,25.0673828 25.8258789,25.0673828 C26.6655273,25.0673828 27.3485352,25.7503906 27.3485352,26.5900391 C27.3485352,27.4296875 26.6654297,28.1126953 25.8258789,28.1126953 M25.8258789,23.6024414 C24.1785156,23.6024414 22.8381836,24.9426758 22.8381836,26.5900391 C22.8381836,28.2374023 24.1785156,29.5776367 25.8258789,29.5776367 C27.4732422,29.5776367 28.8134766,28.2374023 28.8134766,26.5900391 C28.8134766,24.9426758 27.4732422,23.6024414 25.8258789,23.6024414" id="Fill-7"></path>
                <path d="M25.8258789,35.400293 C24.9861328,35.400293 24.303125,34.7172852 24.303125,33.8776367 C24.3032227,33.0380859 24.9862305,32.3548828 25.8258789,32.3548828 C26.6655273,32.3548828 27.3485352,33.0378906 27.3485352,33.8776367 C27.3485352,34.7172852 26.6654297,35.400293 25.8258789,35.400293 M25.8258789,30.8900391 C24.1785156,30.8900391 22.8382813,32.2303711 22.8382813,33.8777344 C22.8382813,35.5250977 24.1785156,36.865332 25.8258789,36.865332 C27.4732422,36.865332 28.8134766,35.5250977 28.8134766,33.8777344 C28.8134766,32.2303711 27.4732422,30.8900391 25.8258789,30.8900391" id="Fill-9"></path>
                <path d="M18.0369141,35.400293 C17.1972656,35.400293 16.5142578,34.7172852 16.5142578,33.8776367 C16.5142578,33.0379883 17.1972656,32.3548828 18.0369141,32.3548828 C18.8764648,32.3548828 19.5595703,33.0378906 19.5595703,33.8776367 C19.5594727,34.7172852 18.8764648,35.400293 18.0369141,35.400293 M18.0369141,30.8900391 C16.3895508,30.8900391 15.0493164,32.2303711 15.0493164,33.8777344 C15.0493164,35.5250977 16.3895508,36.865332 18.0369141,36.865332 C19.6842773,36.865332 21.0245117,35.5250977 21.0245117,33.8777344 C21.0245117,32.2303711 19.6842773,30.8900391 18.0369141,30.8900391" id="Fill-11"></path>
                <path d="M11.2839844,19.3025391 L12.3607422,18.2257812 C12.6467773,17.9397461 12.6467773,17.4760742 12.3606445,17.1899414 C12.074707,16.9040039 11.6109375,16.9039062 11.3248047,17.1900391 L10.2481445,18.2666992 L9.17148438,17.1900391 C8.88544922,16.9040039 8.42167969,16.9039062 8.13564453,17.1899414 C7.84951172,17.4760742 7.84951172,17.9397461 8.13554687,18.2257812 L9.21230469,19.3025391 L8.13554687,20.3792969 C7.84931641,20.6652344 7.84931641,21.1289062 8.13544922,21.4151367 C8.27841797,21.5581055 8.46591797,21.6295898 8.65332031,21.6295898 C8.84072266,21.6295898 9.02822266,21.5581055 9.17128906,21.4150391 L10.2479492,20.3383789 L11.3246094,21.4150391 C11.4676758,21.5581055 11.6550781,21.6295898 11.8425781,21.6295898 C12.0299805,21.6295898 12.2174805,21.5581055 12.3604492,21.4151367 C12.646582,21.1290039 12.646582,20.665332 12.3605469,20.3792969 L11.2839844,19.3025391 Z" id="Fill-13"></path>
                <path d="M11.2839844,26.5901367 L12.3607422,25.5133789 C12.6467773,25.2273437 12.6467773,24.7636719 12.3606445,24.4775391 C12.074707,24.1916016 11.6109375,24.1915039 11.3248047,24.4776367 L10.2481445,25.5542969 L9.17148438,24.4776367 C8.88544922,24.1915039 8.42167969,24.1916016 8.13564453,24.4775391 C7.84951172,24.7636719 7.84951172,25.2273437 8.13554687,25.5133789 L9.21230469,26.5901367 L8.13554687,27.6668945 C7.84931641,27.952832 7.84931641,28.4165039 8.13544922,28.7027344 C8.27841797,28.8457031 8.46591797,28.9171875 8.65332031,28.9171875 C8.84072266,28.9171875 9.02822266,28.8457031 9.17128906,28.7026367 L10.2479492,27.6259766 L11.3246094,28.7026367 C11.4676758,28.8457031 11.6550781,28.9171875 11.8425781,28.9171875 C12.0299805,28.9171875 12.2174805,28.8457031 12.3604492,28.7027344 C12.646582,28.4166016 12.646582,27.9529297 12.3605469,27.6668945 L11.2839844,26.5901367 Z" id="Fill-15"></path>
                <path d="M12.3606445,34.9541992 L11.2839844,33.8775391 L12.3606445,32.8008789 C12.6464844,32.5148438 12.6464844,32.0511719 12.3604492,31.7649414 C12.0743164,31.4790039 11.6106445,31.4790039 11.3245117,31.7649414 L10.2478516,32.8416016 L9.17119141,31.7649414 C8.88505859,31.4790039 8.42138672,31.4790039 8.13525391,31.7649414 C7.84921875,32.0510742 7.84921875,32.5147461 8.13525391,32.8008789 L9.21191406,33.8775391 L8.13525391,34.9541992 C7.84921875,35.240332 7.84921875,35.7040039 8.13525391,35.9901367 C8.27832031,36.1331055 8.46582031,36.2045898 8.65322266,36.2045898 C8.840625,36.2045898 9.028125,36.1331055 9.17119141,35.9901367 L10.2478516,34.9134766 L11.3245117,35.9901367 C11.4675781,36.1331055 11.6550781,36.2045898 11.8424805,36.2045898 C12.0298828,36.2045898 12.2173828,36.1331055 12.3604492,35.9901367 C12.6466797,35.7039063 12.6466797,35.2402344 12.3606445,34.9541992" id="Fill-17"></path>
                <path d="M33.6018555,39.4949219 L33.6018555,32.309668 C33.6018555,31.9927734 33.859668,31.7348633 34.1765625,31.7348633 L41.3619141,31.7348633 C40.6290039,32.4678711 34.3363281,38.7604492 33.6018555,39.4949219 Z M1.46494141,11.1326172 L1.46494141,5.12734375 C1.46494141,4.81044922 1.72285156,4.55253906 2.03974609,4.55253906 L8.45869141,4.55253906 L8.45869141,7.84257813 C8.45869141,8.24716797 8.78652344,8.575 9.19111328,8.575 C9.59570313,8.575 9.92353516,8.24716797 9.92353516,7.84257813 L9.92353516,4.55253906 L14.8288086,4.55253906 L14.8288086,7.84257813 C14.8288086,8.24716797 15.1566406,8.575 15.5612305,8.575 C15.9658203,8.575 16.2936523,8.24716797 16.2936523,7.84257813 L16.2936523,4.55253906 L21.1989258,4.55253906 L21.1989258,7.84257813 C21.1989258,8.24716797 21.5267578,8.575 21.9313477,8.575 C22.3359375,8.575 22.6637695,8.24716797 22.6637695,7.84257813 L22.6637695,4.55253906 L27.5691406,4.55253906 L27.5691406,7.84257813 C27.5691406,8.24716797 27.8969727,8.575 28.3015625,8.575 C28.7061523,8.575 29.0339844,8.24716797 29.0339844,7.84257813 L29.0339844,4.55253906 L33.9392578,4.55253906 L33.9392578,7.84257813 C33.9392578,8.24716797 34.2670898,8.575 34.6716797,8.575 C35.0762695,8.575 35.4041016,8.24716797 35.4041016,7.84257813 L35.4041016,4.55253906 L41.8230469,4.55253906 C42.1399414,4.55253906 42.3978516,4.81044922 42.3978516,5.12734375 L42.3978516,11.1327148 L1.46494141,11.1327148 L1.46494141,11.1326172 Z M49.9579102,37.1333008 L47.9603516,26.6210938 C47.8848633,26.2237305 47.5005859,25.962793 47.1039063,26.0382813 C46.706543,26.1137695 46.4456055,26.497168 46.5210938,26.8947266 L48.5186523,37.4069336 C48.6303711,37.9953125 48.1335938,38.5506836 47.4569336,38.5506836 L36.6180664,38.5506836 L43.6483398,31.5205078 C43.7769531,31.3918945 43.862793,31.2040039 43.862793,31.0025391 L43.862793,12.9053711 L45.8714844,23.4764648 C45.9469727,23.8738281 46.3307617,24.1348633 46.727832,24.0592773 C47.1251953,23.9837891 47.3861328,23.6003906 47.3106445,23.202832 L43.8580078,5.03320312 C43.8083008,3.95224609 42.915918,3.08759766 41.8230469,3.08759766 L35.4041016,3.08759766 L35.4041016,0.732421875 C35.4041016,0.327832031 35.0762695,0 34.6716797,0 C34.2670898,0 33.9392578,0.327832031 33.9392578,0.732421875 L33.9392578,3.0875 L29.0339844,3.0875 L29.0339844,0.732421875 C29.0339844,0.327832031 28.7061523,0 28.3015625,0 C27.8969727,0 27.5691406,0.327832031 27.5691406,0.732421875 L27.5691406,3.0875 L22.6637695,3.0875 L22.6637695,0.732421875 C22.6637695,0.327832031 22.3359375,0 21.9313477,0 C21.5267578,0 21.1989258,0.327832031 21.1989258,0.732421875 L21.1989258,3.0875 L16.2936523,3.0875 L16.2936523,0.732421875 C16.2936523,0.327832031 15.9658203,0 15.5612305,0 C15.1566406,0 14.8288086,0.327832031 14.8288086,0.732421875 L14.8288086,3.0875 L9.92353516,3.0875 L9.92353516,0.732421875 C9.92353516,0.327832031 9.59570313,0 9.19111328,0 C8.78652344,0 8.45869141,0.327832031 8.45869141,0.732421875 L8.45869141,3.0875 L2.03974609,3.0875 C0.915039063,3.08759766 0,4.00253906 0,5.12734375 L0,39.9560547 C0,41.0807617 0.915039063,41.9957031 2.03974609,41.9957031 L20.2223633,41.9957031 C20.6269531,41.9957031 20.9547852,41.6678711 20.9547852,41.2632812 C20.9547852,40.8586914 20.6269531,40.5308594 20.2223633,40.5308594 L2.03974609,40.5308594 C1.72285156,40.5308594 1.46494141,40.2730469 1.46494141,39.9561523 L1.46494141,12.5975586 L42.3979492,12.5975586 L42.3979492,30.2698242 L34.1766602,30.2698242 C33.0519531,30.2698242 32.1370117,31.1848633 32.1370117,32.3095703 L32.1370117,40.5307617 L23.6404297,40.5307617 C23.2358398,40.5307617 22.9080078,40.8585937 22.9080078,41.2631836 C22.9080078,41.6677734 23.2358398,41.9956055 23.6404297,41.9956055 L32.8694336,41.9956055 C33.0583984,41.9956055 33.2478516,41.9207031 33.3874023,41.7811523 L35.1530273,40.0155273 L47.4570313,40.0155273 C49.0478516,40.0155273 50.2424805,38.6305664 49.9579102,37.1333008 Z" id="Fill-19"></path>
            </g>
        </g>
    </g>
</svg>