<?xml version="1.0" encoding="UTF-8" standalone="no"?>
<svg width="41px" height="44px" viewBox="0 0 41 44" version="1.1" xmlns="http://www.w3.org/2000/svg" xmlns:xlink="http://www.w3.org/1999/xlink">
    <!-- Generator: Sketch 49.3 (51167) - http://www.bohemiancoding.com/sketch -->
    <title>Page 1</title>
    <desc>Created with Sketch.</desc>
    <defs></defs>
    <g id="Page-1" stroke="none" stroke-width="1" fill="none" fill-rule="evenodd">
        <g id="1_Course_detail" transform="translate(-470.000000, -3125.000000)" fill="#222222">
            <g id="Page-1" transform="translate(470.000000, 3125.000000)">
                <path d="M1.45054945,42.0659341 L39.1648352,42.0659341 L39.1648352,12.3296703 L1.45054945,12.3296703 L1.45054945,42.0659341 Z M1.45054945,4.35164835 L5.8021978,4.35164835 L5.8021978,6.52747253 C5.8021978,6.92854945 6.1263956,7.25274725 6.52747253,7.25274725 L11.6043956,7.25274725 C12.0054725,7.25274725 12.3296703,6.92854945 12.3296703,6.52747253 L12.3296703,4.35164835 L28.2857143,4.35164835 L28.2857143,6.52747253 C28.2857143,6.92854945 28.6099121,7.25274725 29.010989,7.25274725 L34.0879121,7.25274725 C34.488989,7.25274725 34.8131868,6.92854945 34.8131868,6.52747253 L34.8131868,4.35164835 L39.1648352,4.35164835 L39.1648352,10.8791209 L1.45054945,10.8791209 L1.45054945,4.35164835 Z M7.25274725,1.45054945 L10.8791209,1.45054945 L10.8791209,3.62637363 L10.8791209,5.8021978 L7.25274725,5.8021978 L7.25274725,3.62637363 L7.25274725,1.45054945 Z M29.7362637,1.45054945 L33.3626374,1.45054945 L33.3626374,3.62637363 L33.3626374,5.8021978 L29.7362637,5.8021978 L29.7362637,3.62637363 L29.7362637,1.45054945 Z M39.8901099,2.9010989 L34.8131868,2.9010989 L34.8131868,0.725274725 C34.8131868,0.324197802 34.488989,0 34.0879121,0 L29.010989,0 C28.6099121,0 28.2857143,0.324197802 28.2857143,0.725274725 L28.2857143,2.9010989 L12.3296703,2.9010989 L12.3296703,0.725274725 C12.3296703,0.324197802 12.0054725,0 11.6043956,0 L6.52747253,0 C6.1263956,0 5.8021978,0.324197802 5.8021978,0.725274725 L5.8021978,2.9010989 L0.725274725,2.9010989 C0.324197802,2.9010989 0,3.2252967 0,3.62637363 L0,11.6043956 L0,42.7912088 C0,43.1922857 0.324197802,43.5164835 0.725274725,43.5164835 L39.8901099,43.5164835 C40.2911868,43.5164835 40.6153846,43.1922857 40.6153846,42.7912088 L40.6153846,11.6043956 L40.6153846,3.62637363 C40.6153846,3.2252967 40.2911868,2.9010989 39.8901099,2.9010989 Z" id="Fill-1"></path>
                <path d="M27.5604396,23.2087912 L32.6373626,23.2087912 L32.6373626,18.1318681 L27.5604396,18.1318681 L27.5604396,23.2087912 Z M27.5604396,29.7362637 L32.6373626,29.7362637 L32.6373626,24.6593407 L27.5604396,24.6593407 L27.5604396,29.7362637 Z M27.5604396,36.2637363 L32.6373626,36.2637363 L32.6373626,31.1868132 L27.5604396,31.1868132 L27.5604396,36.2637363 Z M21.032967,36.2637363 L26.1098901,36.2637363 L26.1098901,31.1868132 L21.032967,31.1868132 L21.032967,36.2637363 Z M14.5054945,36.2637363 L19.5824176,36.2637363 L19.5824176,31.1868132 L14.5054945,31.1868132 L14.5054945,36.2637363 Z M7.97802198,36.2637363 L13.0549451,36.2637363 L13.0549451,31.1868132 L7.97802198,31.1868132 L7.97802198,36.2637363 Z M7.97802198,29.7362637 L13.0549451,29.7362637 L13.0549451,24.6593407 L7.97802198,24.6593407 L7.97802198,29.7362637 Z M7.97802198,23.2087912 L13.0549451,23.2087912 L13.0549451,18.1318681 L7.97802198,18.1318681 L7.97802198,23.2087912 Z M14.5054945,23.2087912 L19.5824176,23.2087912 L19.5824176,18.1318681 L14.5054945,18.1318681 L14.5054945,23.2087912 Z M14.5054945,29.7362637 L19.5824176,29.7362637 L19.5824176,24.6593407 L14.5054945,24.6593407 L14.5054945,29.7362637 Z M21.032967,29.7362637 L26.1098901,29.7362637 L26.1098901,24.6593407 L21.032967,24.6593407 L21.032967,29.7362637 Z M21.032967,23.2087912 L26.1098901,23.2087912 L26.1098901,18.1318681 L21.032967,18.1318681 L21.032967,23.2087912 Z M26.1098901,16.6813187 L21.032967,16.6813187 L19.5824176,16.6813187 L14.5054945,16.6813187 L13.0549451,16.6813187 L6.52747253,16.6813187 L6.52747253,23.2087912 L6.52747253,24.6593407 L6.52747253,29.7362637 L6.52747253,31.1868132 L6.52747253,37.7142857 L13.0549451,37.7142857 L14.5054945,37.7142857 L19.5824176,37.7142857 L21.032967,37.7142857 L26.1098901,37.7142857 L27.5604396,37.7142857 L34.0879121,37.7142857 L34.0879121,31.1868132 L34.0879121,29.7362637 L34.0879121,24.6593407 L34.0879121,23.2087912 L34.0879121,16.6813187 L27.5604396,16.6813187 L26.1098901,16.6813187 Z" id="Fill-3"></path>
            </g>
        </g>
    </g>
</svg>