<?xml version="1.0" encoding="UTF-8" standalone="no"?>
<svg width="44px" height="44px" viewBox="0 0 44 44" version="1.1" xmlns="http://www.w3.org/2000/svg" xmlns:xlink="http://www.w3.org/1999/xlink">
    <!-- Generator: Sketch 49.3 (51167) - http://www.bohemiancoding.com/sketch -->
    <title>receipt</title>
    <desc>Created with Sketch.</desc>
    <defs></defs>
    <g id="Page-1" stroke="none" stroke-width="1" fill="none" fill-rule="evenodd">
        <g id="1_Course_detail" transform="translate(-468.000000, -3265.000000)" fill="#222222" fill-rule="nonzero">
            <g id="receipt" transform="translate(468.000000, 3265.000000)">
                <path d="M44,3.1482 C44,1.53046667 42.6844,0.214866667 41.0666667,0.214866667 L2.93333333,0.214866667 C1.3156,0.214866667 0,1.53046667 0,3.1482 C0,4.51146667 0.938666667,5.6496 2.2,5.9774 L2.2,41.5851333 L4.4,39.3851333 L8.8,43.7851333 L13.2,39.3851333 L17.6,43.7851333 L22,39.3851333 L26.4,43.7851333 L30.8,39.3851333 L35.2,43.7851333 L39.6,39.3851333 L41.8,41.5851333 L41.8,5.9774 C43.0613333,5.6496 44,4.51146667 44,3.1482 Z M40.3333333,38.0446 L39.6,37.3112667 L35.2,41.7112667 L30.8,37.3112667 L26.4,41.7112667 L22,37.3112667 L17.6,41.7112667 L13.2,37.3112667 L8.8,41.7112667 L4.4,37.3112667 L3.66666667,38.0446 L3.66666667,6.08153333 L3.66666667,3.88153333 L40.3333333,3.88153333 L40.3333333,6.08153333 L40.3333333,38.0446 Z M41.8,4.4176 L41.8,2.41486667 L2.2,2.41486667 L2.2,4.4176 C1.7622,4.1646 1.46666667,3.69013333 1.46666667,3.1482 C1.46666667,2.33933333 2.12446667,1.68153333 2.93333333,1.68153333 L41.0666667,1.68153333 C41.8755333,1.68153333 42.5333333,2.33933333 42.5333333,3.1482 C42.5333333,3.69013333 42.2378,4.1646 41.8,4.4176 Z" id="Shape"></path>
                <path d="M32.2666667,29.5482 L21.2666667,29.5482 C20.8618667,29.5482 20.5333333,29.876 20.5333333,30.2815333 C20.5333333,30.6870667 20.8618667,31.0148667 21.2666667,31.0148667 L32.2666667,31.0148667 C32.6714667,31.0148667 33,30.6870667 33,30.2815333 C33,29.876 32.6714667,29.5482 32.2666667,29.5482 Z" id="Shape"></path>
                <path d="M35.4126667,29.7608667 C35.2806667,29.8994667 35.2,30.0828 35.2,30.2815333 C35.2,30.4722 35.2806667,30.6628667 35.4126667,30.8022 C35.552,30.9342 35.7426667,31.0148667 35.9333333,31.0148667 C36.124,31.0148667 36.3146667,30.9342 36.454,30.8022 C36.586,30.6628667 36.6666667,30.4722 36.6666667,30.2815333 C36.6666667,30.0828 36.586,29.8994667 36.454,29.7608667 C36.1753333,29.4895333 35.6913333,29.4895333 35.4126667,29.7608667 Z" id="Shape"></path>
                <path d="M35.9333333,19.2815333 L24.9333333,19.2815333 C24.5285333,19.2815333 24.2,19.6093333 24.2,20.0148667 C24.2,20.4204 24.5285333,20.7482 24.9333333,20.7482 L35.9333333,20.7482 C36.3381333,20.7482 36.6666667,20.4204 36.6666667,20.0148667 C36.6666667,19.6093333 36.3381333,19.2815333 35.9333333,19.2815333 Z" id="Shape"></path>
                <path d="M35.9333333,24.4148667 L28.6,24.4148667 C28.1952,24.4148667 27.8666667,24.7426667 27.8666667,25.1482 C27.8666667,25.5537333 28.1952,25.8815333 28.6,25.8815333 L35.9333333,25.8815333 C36.3381333,25.8815333 36.6666667,25.5537333 36.6666667,25.1482 C36.6666667,24.7426667 36.3381333,24.4148667 35.9333333,24.4148667 Z" id="Shape"></path>
                <path d="M20.5333333,25.1482 C20.5333333,25.5537333 20.8618667,25.8815333 21.2666667,25.8815333 L22.7333333,25.8815333 C23.1381333,25.8815333 23.4666667,25.5537333 23.4666667,25.1482 C23.4666667,24.7426667 23.1381333,24.4148667 22.7333333,24.4148667 L21.2666667,24.4148667 C20.8618667,24.4148667 20.5333333,24.7426667 20.5333333,25.1482 Z" id="Shape"></path>
                <path d="M33,14.8815333 C33,14.476 32.6714667,14.1482 32.2666667,14.1482 L21.2666667,14.1482 C20.8618667,14.1482 20.5333333,14.476 20.5333333,14.8815333 C20.5333333,15.2870667 20.8618667,15.6148667 21.2666667,15.6148667 L32.2666667,15.6148667 C32.6714667,15.6148667 33,15.2870667 33,14.8815333 Z" id="Shape"></path>
                <path d="M35.4126667,14.3608667 C35.2806667,14.4994667 35.2,14.6828 35.2,14.8815333 C35.2,15.0722 35.2806667,15.2628667 35.4126667,15.4022 C35.552,15.5342 35.7426667,15.6148667 35.9333333,15.6148667 C36.1313333,15.6148667 36.3146667,15.5342 36.454,15.4022 C36.586,15.2628667 36.6666667,15.0722 36.6666667,14.8815333 C36.6666667,14.6908667 36.586,14.4994667 36.454,14.3608667 C36.1826667,14.0895333 35.684,14.0895333 35.4126667,14.3608667 Z" id="Shape"></path>
                <path d="M22.5206667,20.5355333 C22.6526667,20.3962 22.7333333,20.2128667 22.7333333,20.0148667 C22.7333333,19.8161333 22.6526667,19.6328 22.5206667,19.4942 C22.2493333,19.2228667 21.758,19.2228667 21.4793333,19.4942 C21.3473333,19.6328 21.2666667,19.8161333 21.2666667,20.0148667 C21.2666667,20.2128667 21.3473333,20.3962 21.4793333,20.5355333 C21.6186667,20.6675333 21.8093333,20.7482 22,20.7482 C22.1906667,20.7482 22.3813333,20.6675333 22.5206667,20.5355333 Z" id="Shape"></path>
                <path d="M26.1873333,25.6688667 C26.3193333,25.5295333 26.4,25.3462 26.4,25.1482 C26.4,24.9494667 26.3193333,24.7595333 26.1873333,24.6275333 C25.916,24.3562 25.4246667,24.3562 25.146,24.6275333 C25.014,24.7661333 24.9333333,24.9575333 24.9333333,25.1482 C24.9333333,25.3388667 25.014,25.5295333 25.146,25.6688667 C25.2853333,25.8008667 25.476,25.8815333 25.6666667,25.8815333 C25.8573333,25.8815333 26.048,25.8008667 26.1873333,25.6688667 Z" id="Shape"></path>
                <path d="M12.4666667,15.6889333 L12.4666667,14.8815333 C12.4666667,14.476 12.1381333,14.1482 11.7333333,14.1482 C11.3285333,14.1482 11,14.476 11,14.8815333 L11,15.6911333 C10.1999333,15.8539333 9.471,16.2785333 8.93346667,16.9143333 C8.4854,17.4438 8.27786667,18.1214 8.3512,18.8232 C8.426,19.5411333 8.7956,20.207 9.3654,20.6499333 L11,21.9215333 L11,25.9094 C10.1486,25.6058 9.53333333,24.7991333 9.53333333,23.8443333 C9.53333333,23.4388 9.2048,23.111 8.8,23.111 C8.3952,23.111 8.06666667,23.4388 8.06666667,23.8443333 C8.06666667,25.6146 9.32873333,27.0959333 11,27.4369333 L11,28.0808 C11,28.4863333 11.3285333,28.8141333 11.7333333,28.8141333 C12.1381333,28.8141333 12.4666667,28.4863333 12.4666667,28.0808 L12.4666667,27.434 C13.2667333,27.2712 13.9956667,26.8466 14.5339333,26.2108 C14.982,25.6798667 15.1888,25.0022667 15.1154667,24.3004667 C15.0399333,23.5832667 14.6710667,22.9181333 14.1012667,22.4759333 L12.4666667,21.2050667 L12.4666667,17.2172 C13.3180667,17.5208 13.9333333,18.3274667 13.9333333,19.2822667 C13.9333333,19.6878 14.2618667,20.0156 14.6666667,20.0156 C15.0714667,20.0156 15.4,19.6878 15.4,19.2822667 C15.4,17.5112667 14.1379333,16.0299333 12.4666667,15.6889333 Z M13.2007333,23.6338667 C13.4566667,23.8326 13.6231333,24.1325333 13.6568667,24.4537333 C13.6884,24.7544 13.6018667,25.0426 13.4141333,25.2640667 C13.1589333,25.5654667 12.8289333,25.7766667 12.4666667,25.9057333 L12.4666667,23.0618667 L13.2007333,23.6338667 Z M10.2659333,19.4927333 C10.0092667,19.2932667 9.84353333,18.9933333 9.8098,18.6714 C9.779,18.3714667 9.8648,18.084 10.0525333,17.8618 C10.3077333,17.5604 10.6377333,17.3492 11,17.2201333 L11,20.0632667 L10.2659333,19.4927333 Z" id="Shape"></path>
                <circle id="Oval" cx="29.3333333" cy="8.28153333" r="1"></circle>
                <circle id="Oval" cx="26.4" cy="8.28153333" r="1"></circle>
                <circle id="Oval" cx="32.2666667" cy="8.28153333" r="1"></circle>
                <circle id="Oval" cx="23.4666667" cy="8.28153333" r="1"></circle>
                <circle id="Oval" cx="35.2" cy="8.28153333" r="1"></circle>
                <circle id="Oval" cx="14.6666667" cy="8.28153333" r="1"></circle>
                <circle id="Oval" cx="17.6" cy="8.28153333" r="1"></circle>
                <circle id="Oval" cx="20.5333333" cy="8.28153333" r="1"></circle>
                <circle id="Oval" cx="38.1333333" cy="8.28153333" r="1"></circle>
                <circle id="Oval" cx="11.7333333" cy="8.28153333" r="1"></circle>
                <circle id="Oval" cx="8.8" cy="8.28153333" r="1"></circle>
                <circle id="Oval" cx="5.86666667" cy="8.28153333" r="1"></circle>
            </g>
        </g>
    </g>
</svg>