<svg xmlns="http://www.w3.org/2000/svg">
<defs>
<font id="UTMPenumbra" horiz-adv-x="1783" >
  <font-face 
    font-family="UTM Penumbra"
    font-weight="400"
    font-stretch="normal"
    units-per-em="2048"
    panose-1="2 4 6 3 5 5 6 2 2 4"
    ascent="1638"
    descent="-410"
    x-height="1597"
    cap-height="1597"
    bbox="-32 -512 4942 2337"
    underline-thickness="109"
    underline-position="-143"
    unicode-range="U+0020-2026"
  />
<missing-glyph horiz-adv-x="5040" 
d="M3351 2045h10q37 -10 37 -52q0 -12 -32 -57h-28q0 24 28 54l2 10q-5 13 -10 15h-9q-8 0 -10 -19h-30q6 49 42 49zM2019 2016l29 -31q0 -16 -40 -30h-19l-59 12l-11 -12l-28 25q11 29 43 29h11l42 -11h2q10 0 30 18zM468 1980h142v-60h-94v-75h89v-59h-89v-129l-5 -5h-49
v323zM1155 1980h43l6 -5v-78h30v-52h-30v-188l-6 -5h-49v193h-25v52h25v78zM1621 1980h42l4 -5v-94h3q23 24 54 24h2q58 0 83 -71l2 -39v-143h-52v115q0 80 -42 80h-7q-43 0 -43 -86v-109h-51v323zM2200 1980h49l5 -5v-222q10 -51 45 -51q44 7 44 59v214l5 5h49v-216
q0 -85 -66 -112q-15 -8 -35 -8q-47 0 -82 55q-14 24 -14 57v224zM2435 1980h159v-60h-56v-268h-53v268h-55v55zM2621 1980h71q7 -4 83 -251h2l80 251h73v-328h-54v242h-2l-74 -242h-44q-4 0 -58 182l-19 60h-3v-242h-55v328zM3760 1980h52v-328h-45l-5 5v11l3 2l-3 14
q-29 -40 -78 -40q-67 0 -100 91l-5 39v3q0 94 92 125l23 3q35 0 63 -32h3v107zM2057 1928h36l4 -6v-49h-45v-221h-48v23q-23 -31 -59 -31q-89 14 -89 97v156h51v-104q0 -79 26 -86l18 -5h6q26 0 39 36l3 26v133h53v25zM3476 1928v-55h-31v-221h-47v25h-2q-15 -33 -57 -33
q-68 0 -86 78l-3 29v146h52v-120q0 -50 19 -68l21 -7h9q42 0 42 69v126h27q4 0 4 28l3 3h49zM758 1905q68 0 103 -77q9 -18 12 -54q0 -88 -90 -127l-32 -3q-63 0 -101 73q-12 22 -12 52v10q0 94 101 126h19zM1011 1905h3q74 0 83 -101v-152h-51v119q0 76 -42 76h-5
q-44 0 -44 -76v-119h-52v245h46v-21q30 29 62 29zM1466 1905h7q72 0 105 -89h-60q-16 31 -42 31h-17q-53 -14 -53 -61l-3 -15q12 -69 61 -69h9q22 0 47 27h40l2 3h3l2 -3l2 3l3 -3l2 3l2 -7q-33 -81 -110 -81q-76 0 -110 94l-4 36v3q0 85 77 120q15 8 37 8zM3141 1905h2

<glyph glyph-name=".notdef" horiz-adv-x="5040" 
d="M3351 2045h10q37 -10 37 -52q0 -12 -32 -57h-28q0 24 28 54l2 10q-5 13 -10 15h-9q-8 0 -10 -19h-30q6 49 42 49zM2019 2016l29 -31q0 -16 -40 -30h-19l-59 12l-11 -12l-28 25q11 29 43 29h11l42 -11h2q10 0 30 18zM468 1980h142v-60h-94v-75h89v-59h-89v-129l-5 -5h-49
v323zM1155 1980h43l6 -5v-78h30v-52h-30v-188l-6 -5h-49v193h-25v52h25v78zM1621 1980h42l4 -5v-94h3q23 24 54 24h2q58 0 83 -71l2 -39v-143h-52v115q0 80 -42 80h-7q-43 0 -43 -86v-109h-51v323zM2200 1980h49l5 -5v-222q10 -51 45 -51q44 7 44 59v214l5 5h49v-216
q0 -85 -66 -112q-15 -8 -35 -8q-47 0 -82 55q-14 24 -14 57v224zM2435 1980h159v-60h-56v-268h-53v268h-55v55zM2621 1980h71q7 -4 83 -251h2l80 251h73v-328h-54v242h-2l-74 -242h-44q-4 0 -58 182l-19 60h-3v-242h-55v328zM3760 1980h52v-328h-45l-5 5v11l3 2l-3 14
q-29 -40 -78 -40q-67 0 -100 91l-5 39v3q0 94 92 125l23 3q35 0 63 -32h3v107zM2057 1928h36l4 -6v-49h-45v-221h-48v23q-23 -31 -59 -31q-89 14 -89 97v156h51v-104q0 -79 26 -86l18 -5h6q26 0 39 36l3 26v133h53v25zM3476 1928v-55h-31v-221h-47v25h-2q-15 -33 -57 -33
q-68 0 -86 78l-3 29v146h52v-120q0 -50 19 -68l21 -7h9q42 0 42 69v126h27q4 0 4 28l3 3h49zM758 1905q68 0 103 -77q9 -18 12 -54q0 -88 -90 -127l-32 -3q-63 0 -101 73q-12 22 -12 52v10q0 94 101 126h19zM1011 1905h3q74 0 83 -101v-152h-51v119q0 76 -42 76h-5
q-44 0 -44 -76v-119h-52v245h46v-21q30 29 62 29zM1466 1905h7q72 0 105 -89h-60q-16 31 -42 31h-17q-53 -14 -53 -61l-3 -15q12 -69 61 -69h9q22 0 47 27h40l2 3h3l2 -3l2 3l3 -3l2 3l2 -7q-33 -81 -110 -81q-76 0 -110 94l-4 36v3q0 85 77 120q15 8 37 8zM3141 1905h2
q49 0 70 -60v-14h-52q0 16 -16 16h-4q-14 0 -19 -13v-13q0 -9 68 -35q30 -19 30 -59q0 -58 -61 -80l-23 -3q-76 12 -76 83h54q0 -20 27 -25h4q19 0 24 23q0 22 -68 44q-34 27 -34 59q0 66 74 77zM4203 1905q55 0 77 -63q7 -18 7 -65v-125h-52v112q0 83 -40 83h-11
q-33 0 -40 -54v-141h-52v5h-2l2 2v238h47v-21q25 29 64 29zM4432 1905h5q40 0 69 -40v18l-3 3l3 11h47v-208q0 -97 -85 -132l-33 -4h-7q-70 0 -104 80h59q24 -22 45 -23h13q22 0 43 22q15 13 22 52h-3q-32 -40 -73 -40q-57 0 -96 70q-10 18 -14 63q0 88 87 125zM3851 1897
h53v-136q6 -59 40 -59h7q46 0 46 93v102h51v-245h-47l-3 10h3l-3 3v5l3 2v3h-4q0 -23 -57 -31h-3q-59 0 -84 75l-2 85v93zM690 1771q10 -69 63 -69h7q59 14 59 65v15q-13 65 -59 65h-5q-58 0 -65 -76zM3630 1774q13 -72 61 -72h5q58 0 66 75q0 49 -51 70h-22q-37 0 -56 -57z
M4374 1774q8 -72 65 -72h5q59 12 59 72q0 61 -59 73h-14q-56 -16 -56 -62v-11zM3928 1620h52v-57h-52v57zM1054 1402q43 -11 43 -49v-4q0 -17 -32 -60h-28q0 25 31 57v7q0 12 -7 15h-12q-10 -4 -10 -19h-28v6q0 32 33 44zM3349 1339q92 0 138 -99h-60q-37 42 -80 42
q-55 0 -87 -68q-10 -22 -10 -47q0 -78 81 -110l18 -1q36 0 75 39h61q-44 -97 -138 -97q-93 0 -141 112q-10 31 -10 62q0 97 90 152q29 15 63 15zM3664 1339q57 0 103 -47q46 -51 46 -115v-20q0 -89 -91 -146q-33 -13 -63 -13q-89 0 -138 101q-13 33 -13 60v18q0 98 98 151
q29 11 58 11zM2261 1337h2l47 -11h3q11 0 26 11l18 -36q-18 -19 -35 -19h-3l-54 10l-20 -7l-20 36q18 16 36 16zM716 1334h19q118 0 129 -26q25 -26 25 -62q-10 -57 -30 -57v-6q47 -23 47 -66v-18q0 -63 -69 -88l-54 -5h-67v328zM2550 1334h53v-217q6 -61 45 -61q29 0 44 39
l3 30v203l4 6h45l5 -6v-171q0 -118 -40 -133q-24 -26 -64 -26q-55 0 -91 76l-4 54v206zM2805 1334h59q4 0 122 -237h4v237h50l4 -6v-322h-58q-29 48 -125 238h-3v-238h-53v328zM3101 1334h54v-328h-54v328zM3859 1334h8q155 0 174 -40q23 -11 47 -75l4 -36v-11l3 -2
q0 -94 -82 -149q-35 -15 -99 -15h-55v328zM4141 1334h153v-60h-103v-75h101v-57h-101v-74l4 -5h99v-57h-157v322zM3563 1175v-10q0 -76 79 -108l19 -1q68 0 96 86l3 20v15q0 61 -60 94q-12 8 -39 11q-66 0 -96 -83zM770 1274v-67h9q54 0 54 28l3 14q-11 25 -29 25h-37z
M3912 1274v-206l2 -3v-2q104 0 122 76l2 15v29q0 34 -32 68q-25 23 -78 23h-16zM1041 1259h5q38 0 71 -40v32h49v-245h-49v32q-36 -40 -80 -40q-75 0 -101 97l-5 36q0 89 85 125zM1314 1259h3q74 0 83 -102v-151h-51v128q0 67 -42 67h-10q-34 0 -39 -62v-133h-52v245h47v-21
q28 29 61 29zM1543 1259h5q45 0 71 -40v32h47v-219q0 -95 -104 -126h-16q-74 0 -108 82h59q26 -25 44 -25h14q52 0 64 77q-33 -42 -76 -42q-60 0 -101 81l-7 44v16q0 79 85 117zM1912 1259h2q43 0 61 -37h2q32 37 69 37h4q57 0 79 -55q8 -25 8 -45v-153h-52v138q0 44 -23 55
l-12 2h-15q-32 0 -36 -65v-130h-52v136q0 59 -43 59h-8q-32 0 -36 -57v-138h-54v245h50v-21h2q6 24 54 29zM2282 1259q47 0 75 -42v34h47v-245h-47v32q-36 -40 -78 -40q-74 0 -102 92l-6 41q0 90 85 125zM985 1117q0 -48 61 -61h4q45 0 62 46l3 15v22q-12 62 -57 62h-14
q-41 0 -59 -57v-27zM1487 1128q0 -48 43 -68l18 -4h5q47 0 63 57v23q-11 65 -58 65h-12q-50 0 -59 -73zM2225 1131v-14q15 -61 57 -61h14q58 12 58 64v11q0 45 -37 65l-18 5h-10q-64 -8 -64 -70zM770 1150v-82q0 -5 7 -5q77 0 77 45q0 34 -47 42h-37zM2966 753l24 -28
l-51 -55q-18 12 -27 26zM1524 727l85 -54q0 -15 -21 -42l-87 54q18 41 23 42zM2850 693h38l55 -60h-54l-21 26l-23 -26h-54q54 60 59 60zM3422 693h40l56 -60h-54l-24 26h-1q0 -5 -19 -26h-54zM622 685h52q8 -4 47 -137l34 -110q9 8 34 100l48 147h54v-2l-112 -326h-44z
M1159 685h51v-54h-51v54zM1354 685h46l6 -5v-323h-52v328zM2317 685h45l4 -5v-78h31v-52h-31v-193h-53v193h-26v52h26v78zM2425 685h52v-98h2q23 23 54 23h3q57 0 81 -71l3 -38v-144h-52v115q0 81 -39 81h-10q-42 0 -42 -87v-109h-52v328zM2664 685h52v-54h-52v54zM3028 685
h44l6 -5v-78h29v-52h-29v-193h-54v193h-27v52h27v78zM3234 685h52v-328h-52v328zM3957 685h52v-328h-52v328zM4316 685h51v-54h-51v54zM1555 610h5q83 0 110 -102l3 -23v-11q0 -83 -85 -120l-35 -5q-76 0 -111 97l-4 32q0 97 93 130zM1811 610h4q53 0 78 -60q7 -25 7 -81
v-112h-54v146q-7 50 -37 50h-10q-38 0 -42 -57v-139h-54v245h49v-21q26 29 59 29zM2046 610h4q45 0 63 -39h3v31h49v-206q0 -102 -89 -135l-28 -3h-5q-73 0 -106 81h52l37 -20l15 -3h14q50 0 61 72q-33 -39 -73 -39q-62 0 -98 76q-11 23 -12 60q0 85 86 123zM2866 610h2
q82 0 111 -104l2 -25l-2 -27h-172q15 -45 45 -45l14 -3q29 0 49 22h57v-3q-35 -76 -108 -76q-77 0 -111 97l-1 28v8q0 49 32 89q34 39 82 39zM3429 610h5q41 0 70 -39h2v31h47v-245h-47v31h-2q-35 -39 -77 -39q-71 0 -101 89l-5 36v14q0 86 84 120zM3711 610h7
q88 0 107 -128l-2 -1v-15q0 -65 -66 -106q-21 -11 -46 -11q-34 0 -64 32v-99l-5 -5h-49v325h49v-28q31 36 69 36zM4151 610q44 0 75 -39v31h49v-245h-49v31q-35 -39 -77 -39q-92 0 -108 132q0 84 73 121q15 8 37 8zM922 602h50v-136q3 -60 42 -60h5q44 0 44 87v109h52v-245
h-47v24h-5q0 -23 -56 -32h-3q-55 0 -82 68q-4 35 -4 99v81zM1159 602h51v-245h-51v245zM2664 602h52v-245h-52v245zM4316 602h51v-245h-51v245zM1492 488v-16q13 -66 59 -66h4q59 0 66 76q-13 71 -59 71h-11q-59 -16 -59 -65zM1987 472q15 -66 59 -66h11q48 0 59 75v1
q-13 71 -59 71h-14q-39 0 -56 -57v-24zM2805 506h122v2q-16 45 -59 45h-7q-35 0 -56 -47zM3373 474q13 -68 61 -68h5q52 0 65 63v12q-10 72 -57 72h-16q-56 -14 -56 -63zM3642 478q12 -72 61 -72h3q50 0 65 60v22q0 43 -49 65h-22q-47 0 -58 -72v-3zM4095 472q10 -66 66 -66
q43 0 61 48l2 15v16q0 54 -52 68h-18q-42 0 -59 -60v-21zM3416 321h51v-52h-51v52zM4137 321h51v-52h-51v52zM2733 133h4q35 0 43 -50v-2q0 -16 -24 -41l-10 -17h-28q0 25 28 56l3 2v2q-3 19 -9 19h-10q-8 0 -9 -19h-30q6 50 42 50zM1546 116l52 -60l-26 -19l-52 52zM352 79
h4q75 -48 85 -60l-20 -37q-88 49 -88 58zM3490 79l86 -58l-18 -39q-10 0 -91 55q15 36 23 42zM4578 76l19 -42l-91 -52l-20 39l92 58v-3zM1204 53h51v-19l5 -5h14v-36h-14l-5 -5v-279h-46v31q-34 -40 -81 -40q-72 0 -102 105l-3 26q0 102 101 131h14q33 0 66 -33v59l-6 5
h-43v36h49v24zM1480 45h40l56 -61h-53l-23 27l-23 -27h-53zM2641 45h33q12 0 63 -61h-54l-23 27q-19 -21 -19 -27h-58v4zM49 37h160v-60h-56v-268h-50l-4 5v245l2 3v2l-2 2l2 3l-2 2l2 3l-2 3h-54v54zM699 37h47v-73l2 -2l-2 -3v-3l2 -2l-2 -3v-3l2 -2v-2l-2 -3l2 -3h3
q17 24 51 24h3q53 0 77 -58q7 -17 7 -42v-153h-52v127q0 68 -40 68h-8q-43 0 -43 -86v-109h-52v322zM1297 37h47l5 -6v-49h-52v55zM1987 37h52v-198l70 115h62l-78 -118l90 -125v-2h-70q-10 22 -74 115v-115h-52v328zM2271 37v-99q24 24 53 24q57 0 80 -56q10 -19 10 -77
v-120h-54v133q0 62 -41 62h-11q-31 0 -37 -55v-140h-53v314l-1 3v3l1 2l-1 3l1 3h53zM2458 37h51v-55h-51v55zM3148 37h51v-108q27 33 68 33h3q75 0 105 -94l5 -37q0 -75 -64 -120q-30 -11 -49 -11q-41 0 -72 40v-31h-47v328zM4275 37h52v-99h2q23 24 54 24h3q60 0 82 -74
l2 -41v-138h-52v111q0 82 -32 82l-10 2h-12q-37 0 -37 -80v-115h-52v328zM329 -38h3v-58h-5q-42 0 -42 -57v-138h-53v245h47v-21q18 29 50 29zM564 -38q71 0 86 -87v-166h-51v136q-6 59 -41 59h-6q-45 0 -45 -84v-111h-52v245h50v-21q25 29 59 29zM1504 -38q72 0 105 -94
l5 -39q-2 -24 -7 -24h-169q17 -47 62 -47q24 0 48 21h57q-33 -79 -108 -79q-82 0 -113 105v37q0 81 89 117zM2657 -38h5q77 0 107 -97l3 -26v-21l-3 -13h-170q18 -47 53 -47h12q21 0 42 21h59q-34 -79 -105 -79q-84 0 -115 102l-2 29q0 93 91 128zM2915 -38h4q54 0 78 -60
q7 -25 7 -82v-111h-54v138q0 48 -35 57h-11q-38 0 -43 -57v-138h-54v245h50v-21q25 29 58 29zM3508 -38h6q40 0 70 -40h2v32h47v-245h-47v31h-2q-34 -40 -78 -40q-71 0 -101 90l-4 37v12q0 82 77 117q11 6 30 6zM3781 -38h4q62 0 82 -78l3 -84v-91h-54v138q0 48 -38 57h-9
q-38 0 -42 -52v-143h-54v245h49v-21q26 29 59 29zM4133 -38h1q74 0 104 -93l4 -40q0 -88 -84 -126l-25 -3q-41 0 -68 34v-106h-52v326h47v-29q30 37 73 37zM4714 -38h5q34 0 63 -37q27 37 69 37h6q56 0 79 -66l6 -51v-136h-52v122q0 73 -39 73h-7q-35 0 -41 -50v-140l-5 -5
h-48v140q0 42 -31 55h-17q-40 0 -40 -77v-118h-51v245h47v-21q22 29 56 29zM359 -46h49l5 -6v-234l-5 -5h-49v245zM1297 -46h52v-245h-52v245zM1649 -46h52v-136q4 -60 43 -60h4q44 0 44 81v115h52v-245h-47v24h-5q-12 -33 -59 -33q-52 0 -79 63q-5 12 -5 34v157zM2458 -46
h51v-245h-51v245zM4515 -46h51v-245h-51v245zM1077 -169q0 -53 51 -73h12q54 0 66 66v10q0 53 -54 70h-17q-38 0 -58 -57v-16zM1438 -143h122q-18 47 -53 47h-7q-43 0 -62 -44v-3zM2599 -143h122q-21 47 -54 47h-7q-46 0 -61 -47zM3196 -158v-11q10 -73 61 -73h5q64 8 64 71
v5q0 45 -38 65l-18 5h-14q-60 -14 -60 -62zM3452 -173q14 -69 62 -69h11q41 0 59 60v13q-8 73 -56 73h-17q-47 0 -59 -73v-4zM4062 -158v-22q0 -47 59 -62h9q50 0 61 76q-13 70 -58 70h-15q-56 -17 -56 -62z" />
    <glyph glyph-name=".null" horiz-adv-x="0" 
 />
    <glyph glyph-name="nonmarkingreturn" horiz-adv-x="571" 
 />
    <glyph glyph-name="space" unicode=" " horiz-adv-x="593" 
 />
    <glyph glyph-name="exclam" unicode="!" horiz-adv-x="557" 
d="M370 1597q-2 -97 -3 -272q-2 -163 -4 -352l-3 -580h-164q-2 73 -3 238q-1 73 -2 164q0 80 -1 177l-4 625h184zM282 217q123 0 123 -121q0 -116 -121 -116q-123 0 -123 116q0 121 119 121h2z" />
    <glyph glyph-name="quotedbl" unicode="&#x22;" horiz-adv-x="671" 
d="M274 1608l-54 -461l-80 -17l-59 457zM589 1608l-53 -461l-82 -17l-60 457z" />
    <glyph glyph-name="numbersign" unicode="#" horiz-adv-x="1187" 
d="M389 952h-221l10 111h240l74 369h102l-76 -369h273l75 369h101l-74 -369h207l-13 -111h-221l-65 -317h217l-12 -113h-232l-80 -389h-100l80 389h-273l-79 -389h-103l78 389h-211l12 113h230zM700 635l66 317h-274l-64 -317h272z" />
    <glyph glyph-name="dollar" unicode="$" horiz-adv-x="823" 
d="M743 453q0 -138 -85 -242q-90 -109 -241 -137l-22 -234h-133l2 6q8 96 26 215q-122 3 -221 35l12 160h6q38 -14 76 -23q58 -16 150 -16q97 0 165 61q72 66 72 175q0 92 -92 190q-32 33 -99 90l-26 21q-15 13 -26 22q-28 24 -48 43q-37 38 -60 64q-31 36 -51 70
q-48 82 -48 177q0 314 311 379l23 238h131l-25 -225q108 -4 178 -27q-3 -33 -7 -78q0 -8 -1 -19l-4 -57l-70 19q-65 8 -106 8q-102 0 -169 -56q-73 -62 -73 -167q0 -88 80 -174q15 -18 51 -51l91 -81q7 -7 9 -8q5 -5 9 -8l34 -31q35 -31 48 -44q59 -64 92 -127
q41 -81 41 -166v-2z" />
    <glyph glyph-name="percent" unicode="%" horiz-adv-x="1525" 
d="M417 1602q154 0 256 -105q97 -101 97 -244q0 -140 -94 -245q-102 -115 -261 -115q-156 0 -259 112q-97 105 -97 246q0 139 99 242q104 109 257 109h2zM417 1016q98 0 159 75q56 68 56 162q0 99 -59 164q-61 68 -158 68t-159 -71q-58 -66 -58 -161t57 -163q61 -74 160 -74
h2zM1110 700q155 0 257 -108q97 -102 97 -242t-92 -245q-101 -115 -262 -115q-159 0 -264 115q-97 106 -97 245q0 138 101 242q105 108 258 108h2zM1112 111q96 0 158 72q59 68 59 167q0 92 -60 160q-64 72 -161 72q-96 0 -160 -70q-62 -67 -62 -162q0 -98 62 -167
q64 -72 162 -72h2zM1359 1620q-3 -6 -50 -79l-1008 -1580h-152l1059 1659h151z" />
    <glyph glyph-name="ampersand" unicode="&#x26;" horiz-adv-x="1388" 
d="M516 -31q-201 0 -331 120q-128 117 -128 294q0 146 90 273q77 109 236 223v4q-54 62 -101 141q-34 61 -49 110q-20 64 -20 136q0 139 109 242q110 104 265 104t253 -94q96 -92 96 -234q0 -80 -41 -159q-30 -58 -84 -117q-69 -72 -193 -158v-4q71 -92 168 -202
q91 -103 195 -212l2 2q42 70 75 142q25 56 60 149q21 54 35 100h172v-4q-14 -59 -45 -143q-77 -200 -187 -363q122 -125 215 -213l107 -98v-8h-219q-4 0 -11 6l-108 103q-56 55 -86 88l-4 -2q-93 -105 -209 -163q-125 -63 -260 -63h-2zM579 1460q-79 0 -134 -57
q-52 -56 -52 -133q0 -78 45 -168q12 -25 39 -64l49 -69h4l81 68q44 39 73 73q73 88 73 170q0 72 -48 125q-51 55 -128 55h-2zM532 127q94 0 178 41q93 46 166 139q-102 102 -215 228q-101 114 -188 221q-112 -86 -166 -167q-62 -91 -62 -194q0 -116 83 -192q81 -76 202 -76
h2z" />
    <glyph glyph-name="quotesingle" unicode="'" horiz-adv-x="403" 
d="M205 1606q116 0 116 -146q0 -56 -24 -117q-19 -45 -49 -90q-59 -79 -129 -120l-29 32q11 11 26 31l27 39q43 71 43 121q0 16 -20 22q-78 16 -78 105q0 123 115 123h2z" />
    <glyph glyph-name="parenleft" unicode="(" horiz-adv-x="659" 
d="M493 -162q-149 174 -241 391q-113 261 -113 559q0 291 115 560q92 223 245 393h134q-159 -223 -234 -436q-92 -264 -92 -517q0 -136 26 -275q23 -122 66 -243q74 -215 229 -432h-135z" />
    <glyph glyph-name="parenright" unicode=")" horiz-adv-x="659" 
d="M161 1741q146 -162 242 -393q117 -275 117 -557q0 -289 -115 -560q-93 -220 -242 -393h-133q152 211 229 430q46 129 68 248q25 132 25 275q0 136 -28 274q-24 120 -69 246q-79 222 -229 430h135z" />
    <glyph glyph-name="asterisk" unicode="*" horiz-adv-x="681" 
d="M280 1018q3 48 9 112l10 103l-2 2q-50 -37 -87 -63l-94 -62l-59 102q19 10 45 23l152 70v4l-100 47q-59 29 -99 51l61 104q91 -63 181 -133l4 2q-7 58 -13 112q-7 67 -10 114h125q-3 -47 -10 -114q-5 -54 -12 -112l4 -2l178 133l63 -102q-39 -22 -99 -52l-99 -48v-4
l100 -43q58 -25 98 -45l-63 -107q-50 34 -91 63q-50 36 -87 64l-2 -2l20 -217h-123z" />
    <glyph glyph-name="plus" unicode="+" horiz-adv-x="1103" 
d="M620 225h-135v422h-391v131h391v383h135v-383h392v-131h-392v-422z" />
    <glyph glyph-name="comma" unicode="," horiz-adv-x="428" 
d="M215 217q119 0 119 -147q0 -58 -25 -118q-18 -44 -49 -89q-65 -86 -129 -123l-33 35q23 23 55 69q41 65 41 121q0 18 -20 21q-78 15 -78 106q0 125 117 125h2z" />
    <glyph glyph-name="hyphen" unicode="-" horiz-adv-x="622" 
d="M561 700h-498v146h498v-146z" />
    <glyph glyph-name="hyphen" unicode="&#x2010;" horiz-adv-x="622" 
d="M561 700h-498v146h498v-146z" />
    <glyph glyph-name="period" unicode="." horiz-adv-x="428" 
d="M215 219q121 0 121 -123q0 -119 -123 -119q-121 0 -121 119q0 123 121 123h2z" />
    <glyph glyph-name="slash" unicode="/" horiz-adv-x="997" 
d="M1023 1626q-58 -106 -120 -220l-784 -1445h-147q62 114 127 234l337 615q59 108 107 195l336 621h144z" />
    <glyph glyph-name="zero" unicode="0" horiz-adv-x="1308" 
d="M657 1618q146 0 261 -74q103 -67 175 -191q65 -112 99 -260q31 -137 31 -284q0 -145 -29 -281q-31 -153 -94 -268q-71 -131 -175 -201q-118 -79 -272 -79t-271 78q-104 70 -174 200q-63 115 -94 268q-28 135 -28 281t30 282q33 149 98 262q72 125 176 192q116 75 265 75
h2zM657 152q108 0 186 66q68 58 111 165q38 91 55 214q15 101 15 212q0 100 -15 197q-18 118 -55 208q-44 108 -112 166q-79 68 -187 68q-109 0 -188 -67q-69 -59 -113 -166q-37 -90 -55 -209q-14 -97 -14 -199q0 -110 14 -210q18 -123 55 -214q44 -107 113 -165
q79 -66 188 -66h2z" />
    <glyph glyph-name="one" unicode="1" horiz-adv-x="772" 
d="M533 0h-191v1375q-1 8 -10 5q-16 -7 -55 -26l-230 -113l-51 107q33 16 97 51l360 198h80v-1597z" />
    <glyph glyph-name="two" unicode="2" horiz-adv-x="1093" 
d="M487 1620q228 0 363 -132q124 -123 124 -310q0 -171 -78 -338q-67 -141 -194 -289q-192 -225 -381 -383h688v-168h-983v115q139 126 233 216q107 104 209 214q105 111 185 233q118 184 118 359q0 134 -85 217q-89 88 -244 88q-143 0 -281 -64q-57 -30 -90 -53h-2
q0 72 -4 182q174 113 420 113h2z" />
    <glyph glyph-name="three" unicode="3" horiz-adv-x="1034" 
d="M245 903q128 0 215 23q93 25 149 71q91 74 91 201q0 117 -91 191q-81 63 -204 63q-118 0 -217 -45q-36 -12 -76 -41h-4l-4 178q142 76 327 76t305 -86q166 -118 166 -324q0 -164 -114 -266q-83 -75 -187 -108v-2q118 -22 199 -95q147 -116 147 -303q0 -196 -145 -327
q-142 -123 -373 -123q-207 0 -391 98l8 184h6q33 -24 74 -45q130 -69 281 -69q148 0 247 90q86 73 86 207q0 113 -90 200q-68 61 -174 82q-82 17 -231 17v153z" />
    <glyph glyph-name="four" unicode="4" horiz-adv-x="1218" 
d="M1186 516v-156h-238v-360h-188v360h-758v76l255 354q59 82 117 161q134 185 249 342l235 319h90v-1096h238zM762 516l1 295l5 422h-2l-375 -529q-21 -30 -35 -49l-96 -135v-4h502z" />
    <glyph glyph-name="five" unicode="5" horiz-adv-x="1056" 
d="M982 508q0 -122 -69 -240q-65 -111 -162 -172q-161 -104 -387 -104q-170 0 -324 61l10 80q7 51 13 88h6l39 -18l43 -15q107 -28 219 -28q151 0 258 65q62 39 104 109q47 80 47 168q0 113 -68 192q-56 65 -151 99q-98 36 -239 36q-59 0 -118 -5q-43 -3 -95 -11l102 784
h743l-10 -172h-571l-66 -442q193 13 361 -41q139 -45 222 -148q93 -116 93 -284v-2z" />
    <glyph glyph-name="six" unicode="6" horiz-adv-x="1245" 
d="M1167 518q0 -219 -152 -377q-160 -164 -405 -164q-246 0 -399 154q-148 148 -148 377q0 141 74 295q66 144 200 350l291 444h217l-442 -651l2 -2q104 76 252 76q227 0 372 -149q138 -143 138 -351v-2zM618 143q143 0 247 100q109 106 109 269q0 149 -94 249
q-95 100 -246 107q-89 6 -168 -26q-85 -30 -145 -109q-68 -96 -68 -221q0 -162 104 -266q103 -103 259 -103h2z" />
    <glyph glyph-name="seven" unicode="7" horiz-adv-x="1099" 
d="M59 1425v172h1016q1 -4 1 -23t-1 -24l-413 -823q-194 -386 -367 -727h-199l723 1425h-760z" />
    <glyph glyph-name="eight" unicode="8" horiz-adv-x="1202" 
d="M600 739q-132 0 -220 -77q-95 -83 -95 -226q0 -129 93 -212q91 -81 224 -81q130 0 219 83q92 85 92 212q0 141 -92 224q-87 77 -219 77h-2zM594 -16q-217 0 -361 120q-147 124 -147 318q0 145 87 257q82 108 214 150q-248 108 -248 359q0 182 135 304q136 124 338 124
q201 0 327 -118q122 -116 122 -294q0 -263 -248 -366q301 -83 301 -394q0 -201 -150 -332q-147 -128 -368 -128h-2zM600 1456q-123 0 -197 -79q-71 -76 -71 -193q0 -122 80 -201q78 -76 190 -76q113 0 190 77q78 79 78 200q0 118 -72 194q-75 78 -196 78h-2z" />
    <glyph glyph-name="nine" unicode="9" horiz-adv-x="1247" 
d="M1181 1092q0 -156 -88 -332q-69 -137 -211 -352l-268 -408h-220l287 414l68 103q35 53 86 126l-4 4q-100 -69 -244 -69q-219 0 -365 143q-145 142 -145 356q0 226 150 375q162 166 419 166q239 0 390 -154q145 -148 145 -370v-2zM624 1454q-153 0 -257 -109
q-102 -106 -102 -258q0 -156 103 -259t260 -103q161 0 262 106q98 109 98 259q0 159 -106 262q-103 102 -256 102h-2z" />
    <glyph glyph-name="colon" unicode=":" horiz-adv-x="428" 
d="M215 219q121 0 121 -123q0 -119 -123 -119q-121 0 -121 119q0 123 121 123h2zM215 922q121 0 121 -121q0 -119 -123 -119q-121 0 -121 119q0 121 121 121h2z" />
    <glyph glyph-name="semicolon" unicode=";" horiz-adv-x="428" 
d="M219 922q119 0 119 -123q0 -119 -121 -119q-123 0 -123 119q0 123 123 123h2zM213 219q121 0 121 -149q0 -57 -25 -117q-19 -45 -51 -90q-56 -79 -127 -123l-33 35q11 11 26 31l27 38q43 71 43 123q0 18 -20 21q-80 16 -80 106q0 125 117 125h2z" />
    <glyph glyph-name="less" unicode="&#x3c;" horiz-adv-x="1103" 
d="M120 762l864 401v-137l-708 -315v-15l708 -315v-139l-864 403v117z" />
    <glyph glyph-name="equal" unicode="=" horiz-adv-x="1103" 
d="M1012 825h-918v131h918v-131zM1012 461h-918v131h918v-131z" />
    <glyph glyph-name="greater" unicode="&#x3e;" horiz-adv-x="1103" 
d="M120 242v139l707 315v15l-707 315v137l864 -401v-117z" />
    <glyph glyph-name="question" unicode="?" horiz-adv-x="919" 
d="M380 1614q73 0 137 -15q73 -16 130 -51q182 -114 182 -336q0 -120 -60 -229q-26 -47 -66 -99q-32 -41 -83 -96q-105 -114 -142 -199q-33 -77 -38 -200h-168q3 139 37 229q41 109 151 228q87 97 125 168q47 86 47 172q0 141 -116 215q-73 43 -172 43q-52 0 -93 -10
q-44 -9 -90 -33q-53 -25 -86 -49h-4l-8 176q70 43 147 61q83 25 168 25h2zM358 219q117 0 117 -123q0 -119 -119 -119q-123 0 -123 119q0 123 123 123h2z" />
    <glyph glyph-name="at" unicode="@" horiz-adv-x="1761" 
d="M1218 -20q-179 -89 -391 -89q-334 0 -536 196q-195 189 -195 488q0 345 244 578q242 231 600 231q306 0 507 -172q208 -178 208 -462q0 -210 -131 -355q-125 -139 -291 -139q-174 0 -183 190h-6q-118 -188 -315 -188q-107 0 -177 74q-73 77 -73 207q0 206 147 351
q149 146 369 146q70 0 146 -15q65 -13 116 -34l-78 -393q-45 -238 78 -238q107 -1 193 118q86 118 86 263q0 242 -160 395q-168 160 -453 160q-260 0 -474 -198q-105 -97 -164 -222q-64 -135 -64 -284q0 -276 181 -442q173 -158 444 -158q188 0 342 82zM1106 903l-24 6
l-32 6q-43 7 -77 7q-143 0 -248 -110q-103 -109 -103 -253q0 -186 162 -186q89 0 175 100q80 94 100 201z" />
    <glyph glyph-name="A" unicode="A" horiz-adv-x="1355" 
d="M373 449q-47 -115 -86 -210l-65 -157l-8 -20q-2 -7 -6 -17l-17 -45h-197l147 352q32 76 68 163l463 1109h24l654 -1624h-209l-10 32l-166 417h-592zM903 608v6l-169 445q-39 104 -56 162h-4q-18 -56 -59 -162l-179 -451h467z" />
    <glyph glyph-name="B" unicode="B" horiz-adv-x="1081" 
d="M986 455q0 -252 -227 -379q-130 -76 -383 -76l-95 3l-114 7v1581l72 6q102 5 182 5q144 0 248 -39q41 -17 76 -39q47 -30 82 -70q42 -48 65 -109q27 -71 27 -157q0 -285 -265 -352v-5q140 -21 232 -117q100 -104 100 -257v-2zM726 1178q0 123 -84 193q-77 65 -201 65
q-55 0 -92 -4v-525q8 -1 23 -2h26q75 0 140 19q77 22 129 84q59 71 59 168v2zM788 463q0 97 -59 168q-51 62 -136 92q-84 25 -164 25l-80 -3v-571q0 -2 2 -2l40 -4h36q107 0 184 33q65 28 112 82q65 76 65 178v2z" />
    <glyph glyph-name="C" unicode="C" horiz-adv-x="1353" 
d="M77 807q0 370 249 595q243 218 628 218q48 0 93 -3q33 -2 68 -5q82 -11 138 -25l-7 -178h-6q-33 10 -88 21q-82 16 -190 16q-312 0 -494 -173q-184 -174 -184 -472q0 -288 186 -470q184 -179 469 -179q116 0 205 18q21 4 46 12l46 15l8 -174q-57 -20 -139 -33
q-95 -13 -190 -13q-352 0 -587 217q-251 230 -251 611v2z" />
    <glyph glyph-name="D" unicode="D" horiz-adv-x="1431" 
d="M1353 827q0 -214 -78 -382q-73 -158 -213 -271q-213 -180 -569 -180q-97 0 -199 4l-33 2q-19 0 -33 1l-61 5v1585q64 8 145 11l95 3l94 1q314 0 526 -136q326 -207 326 -641v-2zM1154 823q0 315 -239 496q-154 115 -404 115q-32 0 -81 -3l-73 -4v-1249q0 -4 5 -4
q55 -6 149 -6q267 0 428 145q102 87 156 209q59 132 59 299v2z" />
    <glyph glyph-name="E" unicode="E" horiz-adv-x="1003" 
d="M167 1597h723v-167h-533v-533h492v-164h-492v-563h555v-170h-745v1597z" />
    <glyph glyph-name="F" unicode="F" horiz-adv-x="976" 
d="M357 872h492v-165h-492v-707h-190v1597h723v-167h-533v-558z" />
    <glyph glyph-name="G" unicode="G" horiz-adv-x="1474" 
d="M77 805q0 373 254 600q244 217 620 217q112 0 213 -12q103 -19 156 -33l-2 -56q-1 -21 -2 -46l-2 -80h-6q-36 14 -88 26q-57 13 -114 20q-71 9 -136 9q-308 0 -496 -174q-192 -177 -192 -477q0 -291 179 -471q179 -178 464 -178q126 0 221 24v553h191v-686
q-182 -64 -420 -64q-366 0 -598 220q-242 227 -242 606v2z" />
    <glyph glyph-name="H" unicode="H" horiz-adv-x="1519" 
d="M1353 0h-191v731h-805v-731h-190v1597h190v-700h805v700h191v-1597z" />
    <glyph glyph-name="I" unicode="I" horiz-adv-x="524" 
d="M357 0h-190v1597h190v-1597z" />
    <glyph glyph-name="J" unicode="J" horiz-adv-x="917" 
d="M760 590q0 -296 -74 -422q-59 -102 -170 -152q-93 -41 -236 -41q-70 0 -145 15q-51 9 -88 22v178l80 -24q60 -16 133 -16q98 0 164 32q74 34 106 109q39 90 39 299v1007h191v-1007z" />
    <glyph glyph-name="K" unicode="K" horiz-adv-x="1216" 
d="M167 1597h190v-723l523 644l59 79h223v-4l-144 -178l-482 -577l563 -678l106 -126q19 -22 27 -30v-4h-242l-186 229l-447 537v-766h-190v1597z" />
    <glyph glyph-name="L" unicode="L" horiz-adv-x="962" 
d="M167 1597h190v-1417q0 -10 9 -10h542v-170h-741v1597z" />
    <glyph glyph-name="M" unicode="M" horiz-adv-x="1871" 
d="M272 1612h20q402 -778 506 -983l87 -172l46 -95h2q20 47 43 93q27 56 88 172l522 985h21l178 -1612h-192l-66 627q-34 329 -39 481h-4q-46 -109 -106 -229q-26 -51 -58 -114l-63 -120q-48 -95 -135 -259l-189 -351h-22l-186 353q-87 166 -134 259q-36 72 -61 123
q-33 65 -58 119q-60 127 -96 223h-4q-7 -106 -15 -207q-11 -116 -28 -278l-68 -627h-184z" />
    <glyph glyph-name="N" unicode="N" horiz-adv-x="1566" 
d="M1400 -20h-23l-905 1051q-62 73 -127 157h-4q2 -55 2 -148v-1040h-176v1620h20l860 -1005l173 -207h4q-2 60 -2 154v1035h178v-1617z" />
    <glyph glyph-name="O" unicode="O" 
d="M1705 805q0 -346 -231 -585q-236 -245 -590 -245q-338 0 -573 240q-234 238 -234 573q0 353 238 591q239 239 598 239q340 0 567 -234q225 -233 225 -577v-2zM1504 799q0 273 -175 458q-176 187 -439 187q-260 0 -436 -188q-174 -186 -174 -459q0 -266 176 -454
q178 -191 438 -191q263 0 438 188q172 185 172 457v2z" />
    <glyph glyph-name="P" unicode="P" horiz-adv-x="1103" 
d="M167 1591l57 5q15 1 37 2l39 1q96 4 164 0q165 -7 268 -53q124 -52 197 -158q80 -116 80 -276q0 -125 -54 -231q-51 -97 -129 -152q-85 -69 -194 -98q-57 -15 -135 -21q-55 -4 -146 -4v-606h-184v1591zM816 1116q0 198 -176 281q-77 37 -209 37q-31 0 -80 -4v-658h74
q113 4 184 31q83 31 136 96q71 88 71 215v2z" />
    <glyph glyph-name="Q" unicode="Q" 
d="M1707 805q0 -158 -60 -307q-55 -135 -143 -226q-43 -52 -100 -99q-69 -55 -141 -91v-6q33 -18 88 -43l96 -43q74 -30 168 -62l19 -8q8 -3 19 -6l38 -12q-51 -58 -123 -133h-4q-92 33 -236 102q-52 24 -126 65l-111 64q-28 -8 -88 -18q-74 -9 -119 -9q-341 0 -576 241
q-231 238 -231 574q0 351 239 590q241 240 599 240q339 0 566 -234q226 -233 226 -577v-2zM1504 799q0 274 -173 459q-176 188 -443 188q-259 0 -436 -191q-174 -189 -174 -458q0 -265 174 -454q179 -193 440 -193q267 0 442 190q170 186 170 457v2z" />
    <glyph glyph-name="R" unicode="R" horiz-adv-x="1122" 
d="M167 1593l46 3l46 3q82 5 139 5q170 0 291 -43q41 -14 81 -39q50 -32 88 -75q46 -52 71 -117q29 -76 29 -167q0 -148 -75 -259q-29 -43 -69 -79q-31 -28 -67 -51q-63 -46 -136 -63v-4l414 -539q87 -117 127 -164v-4h-229l-504 678h-68v-678h-184v1593zM765 1151
q0 285 -332 285q-53 0 -82 -4v-603q7 -1 25 -1l35 -1q95 0 176 37q77 37 121 97q57 77 57 188v2z" />
    <glyph glyph-name="S" unicode="S" horiz-adv-x="897" 
d="M802 397q0 -168 -124 -287q-137 -133 -367 -133q-133 0 -240 37l8 179l74 -25q74 -18 160 -18q117 0 199 67q87 71 87 186q0 136 -135 254l-99 84q-53 46 -91 82q-174 171 -174 367q0 171 121 288q131 128 350 128q114 0 182 -21q-6 -86 -8 -174h-4q-35 13 -68 16
q-35 9 -86 9q-126 0 -206 -66q-83 -66 -83 -174q0 -112 90 -209q34 -35 97 -89l114 -99q103 -96 148 -176q55 -99 55 -224v-2z" />
    <glyph glyph-name="T" unicode="T" horiz-adv-x="1181" 
d="M495 1432h-475v165h1141v-165h-475v-1432h-191v1432z" />
    <glyph glyph-name="U" unicode="U" horiz-adv-x="1509" 
d="M143 1597h193v-907q0 -253 75 -371q105 -167 332 -167q226 0 340 151q92 128 92 404v890h187v-899q0 -323 -127 -493q-158 -230 -494 -230q-347 0 -500 250q-98 159 -98 457v915z" />
    <glyph glyph-name="V" unicode="V" horiz-adv-x="1368" 
d="M692 -23h-20l-397 945q-82 193 -144 341l-137 334h211l123 -310l260 -637q51 -130 100 -271h2q91 249 234 600l199 491q50 120 51 123v4h200l-138 -334z" />
    <glyph glyph-name="W" unicode="W" horiz-adv-x="1910" 
d="M1474 -39h-26q-143 353 -234 583q-88 221 -140 355q-47 123 -73 196q-21 59 -35 105h-2l-37 -106l-76 -196q-54 -136 -143 -355l-237 -582h-25l-264 997q-49 183 -85 319q-29 112 -49 189l-30 131h197v-4q0 -5 7 -31q3 -12 9 -35l137 -523q76 -301 135 -558h4
q32 95 81 227l122 324l135 318q5 11 8 19l107 249h23l126 -305q34 -83 62 -148l59 -139l120 -319q48 -130 79 -217h2l127 542l152 600h182l-34 -130q-21 -79 -49 -189q-35 -138 -81 -320z" />
    <glyph glyph-name="X" unicode="X" horiz-adv-x="1224" 
d="M501 805l-114 190l-292 476l-77 122v4h229v-4l365 -612h2l214 363q51 84 87 143l66 106v4h211v-4l-474 -776l484 -813v-4h-228v4q-3 5 -16 28l-246 437q-61 99 -104 180h-4q-48 -92 -97 -172l-258 -444q-13 -23 -16 -29v-4h-215v4q3 5 76 126z" />
    <glyph glyph-name="Y" unicode="Y" horiz-adv-x="1198" 
d="M693 635v-635h-191v627l-333 617l-166 318l-15 35h215v-4q3 -7 13 -28q13 -27 34 -71l64 -126l286 -549h4q32 67 84 168l258 508l46 98v4h204l-14 -35q-17 -36 -50 -102q-44 -86 -115 -219q-84 -160 -204 -383z" />
    <glyph glyph-name="Z" unicode="Z" horiz-adv-x="1181" 
d="M634 717q-32 -59 -75 -134l-155 -275q-43 -76 -77 -136l-2 -6h776v-166h-1077v4l198 358l376 687l217 389h-730v159h1029v-4l-182 -336q-50 -91 -92 -168q-49 -89 -93 -167z" />
    <glyph glyph-name="bracketleft" unicode="[" horiz-adv-x="591" 
d="M552 -178h-362v1919h362v-88h-182q-12 0 -16 -8q-2 -4 -2 -15q-2 -23 -2 -159v-1539q0 -10 3 -15q5 -7 17 -7h182v-88z" />
    <glyph glyph-name="backslash" unicode="\" horiz-adv-x="993" 
d="M111 1626q117 -218 228 -424l680 -1241h-146l-457 846l-448 819h143z" />
    <glyph glyph-name="bracketright" unicode="]" horiz-adv-x="591" 
d="M38 -90h182q12 0 16 7q3 5 3 15v1539q1 141 0 159q0 11 -3 15q-4 8 -16 8h-182v88h362v-1917h-362v86z" />
    <glyph glyph-name="asciicircum" unicode="^" horiz-adv-x="1105" 
d="M548 1438l-325 -672h-156l418 831h133l420 -831h-160z" />
    <glyph glyph-name="underscore" unicode="_" horiz-adv-x="1024" 
d="M0 -154h1024v-102h-1024v102z" />
    <glyph glyph-name="grave" unicode="`" horiz-adv-x="403" 
d="M198 1139q-117 0 -117 145q0 57 25 117q19 47 51 90q55 78 127 121l30 -33q-12 -11 -27 -31l-28 -39q-43 -70 -43 -120q0 -20 21 -23q77 -16 77 -104q0 -123 -114 -123h-2z" />
    <glyph glyph-name="a" unicode="a" horiz-adv-x="1355" 
d="M373 449q-47 -115 -86 -210l-65 -157l-8 -20q-2 -7 -6 -17l-17 -45h-197l147 352q32 76 68 163l463 1109h24l654 -1624h-209l-10 32l-166 417h-592zM903 608v6l-169 445q-39 104 -56 162h-4q-18 -56 -59 -162l-179 -451h467z" />
    <glyph glyph-name="b" unicode="b" horiz-adv-x="1081" 
d="M986 455q0 -252 -227 -379q-130 -76 -383 -76l-95 3l-114 7v1581l72 6q102 5 182 5q144 0 248 -39q41 -17 76 -39q47 -30 82 -70q42 -48 65 -109q27 -71 27 -157q0 -285 -265 -352v-5q140 -21 232 -117q100 -104 100 -257v-2zM726 1178q0 123 -84 193q-77 65 -201 65
q-55 0 -92 -4v-525q8 -1 23 -2h26q75 0 140 19q77 22 129 84q59 71 59 168v2zM788 463q0 97 -59 168q-51 62 -136 92q-84 25 -164 25l-80 -3v-571q0 -2 2 -2l40 -4h36q107 0 184 33q65 28 112 82q65 76 65 178v2z" />
    <glyph glyph-name="c" unicode="c" horiz-adv-x="1353" 
d="M77 807q0 370 249 595q243 218 628 218q48 0 93 -3q33 -2 68 -5q82 -11 138 -25l-7 -178h-6q-33 10 -88 21q-82 16 -190 16q-312 0 -494 -173q-184 -174 -184 -472q0 -288 186 -470q184 -179 469 -179q116 0 205 18q21 4 46 12l46 15l8 -174q-57 -20 -139 -33
q-95 -13 -190 -13q-352 0 -587 217q-251 230 -251 611v2z" />
    <glyph glyph-name="d" unicode="d" horiz-adv-x="1431" 
d="M1353 827q0 -214 -78 -382q-73 -158 -213 -271q-213 -180 -569 -180q-97 0 -199 4l-33 2q-19 0 -33 1l-61 5v1585q64 8 145 11l95 3l94 1q314 0 526 -136q326 -207 326 -641v-2zM1154 823q0 315 -239 496q-154 115 -404 115q-32 0 -81 -3l-73 -4v-1249q0 -4 5 -4
q55 -6 149 -6q267 0 428 145q102 87 156 209q59 132 59 299v2z" />
    <glyph glyph-name="e" unicode="e" horiz-adv-x="1003" 
d="M167 1597h723v-167h-533v-533h492v-164h-492v-563h555v-170h-745v1597z" />
    <glyph glyph-name="f" unicode="f" horiz-adv-x="976" 
d="M357 872h492v-165h-492v-707h-190v1597h723v-167h-533v-558z" />
    <glyph glyph-name="g" unicode="g" horiz-adv-x="1474" 
d="M77 805q0 373 254 600q244 217 620 217q112 0 213 -12q103 -19 156 -33l-2 -56q-1 -21 -2 -46l-2 -80h-6q-36 14 -88 26q-57 13 -114 20q-71 9 -136 9q-308 0 -496 -174q-192 -177 -192 -477q0 -291 179 -471q179 -178 464 -178q126 0 221 24v553h191v-686
q-182 -64 -420 -64q-366 0 -598 220q-242 227 -242 606v2z" />
    <glyph glyph-name="h" unicode="h" horiz-adv-x="1519" 
d="M1353 0h-191v731h-805v-731h-190v1597h190v-700h805v700h191v-1597z" />
    <glyph glyph-name="i" unicode="i" horiz-adv-x="524" 
d="M357 0h-190v1597h190v-1597z" />
    <glyph glyph-name="j" unicode="j" horiz-adv-x="917" 
d="M760 590q0 -296 -74 -422q-59 -102 -170 -152q-93 -41 -236 -41q-70 0 -145 15q-51 9 -88 22v178l80 -24q60 -16 133 -16q98 0 164 32q74 34 106 109q39 90 39 299v1007h191v-1007z" />
    <glyph glyph-name="k" unicode="k" horiz-adv-x="1216" 
d="M167 1597h190v-723l523 644l59 79h223v-4l-144 -178l-482 -577l563 -678l106 -126q19 -22 27 -30v-4h-242l-186 229l-447 537v-766h-190v1597z" />
    <glyph glyph-name="l" unicode="l" horiz-adv-x="962" 
d="M167 1597h190v-1417q0 -10 9 -10h542v-170h-741v1597z" />
    <glyph glyph-name="m" unicode="m" horiz-adv-x="1871" 
d="M272 1612h20q402 -778 506 -983l87 -172l46 -95h2q20 47 43 93q27 56 88 172l522 985h21l178 -1612h-192l-66 627q-34 329 -39 481h-4q-46 -109 -106 -229q-26 -51 -58 -114l-63 -120q-48 -95 -135 -259l-189 -351h-22l-186 353q-87 166 -134 259q-36 72 -61 123
q-33 65 -58 119q-60 127 -96 223h-4q-7 -106 -15 -207q-11 -116 -28 -278l-68 -627h-184z" />
    <glyph glyph-name="n" unicode="n" horiz-adv-x="1566" 
d="M1400 -20h-23l-905 1051q-62 73 -127 157h-4q2 -55 2 -148v-1040h-176v1620h20l860 -1005l173 -207h4q-2 60 -2 154v1035h178v-1617z" />
    <glyph glyph-name="o" unicode="o" 
d="M1705 805q0 -346 -231 -585q-236 -245 -590 -245q-338 0 -573 240q-234 238 -234 573q0 353 238 591q239 239 598 239q340 0 567 -234q225 -233 225 -577v-2zM1504 799q0 273 -175 458q-176 187 -439 187q-260 0 -436 -188q-174 -186 -174 -459q0 -266 176 -454
q178 -191 438 -191q263 0 438 188q172 185 172 457v2z" />
    <glyph glyph-name="p" unicode="p" horiz-adv-x="1103" 
d="M167 1591l57 5q15 1 37 2l39 1q96 4 164 0q165 -7 268 -53q124 -52 197 -158q80 -116 80 -276q0 -125 -54 -231q-51 -97 -129 -152q-85 -69 -194 -98q-57 -15 -135 -21q-55 -4 -146 -4v-606h-184v1591zM816 1116q0 198 -176 281q-77 37 -209 37q-31 0 -80 -4v-658h74
q113 4 184 31q83 31 136 96q71 88 71 215v2z" />
    <glyph glyph-name="q" unicode="q" 
d="M1707 805q0 -158 -60 -307q-55 -135 -143 -226q-43 -52 -100 -99q-69 -55 -141 -91v-6q33 -18 88 -43l96 -43q74 -30 168 -62l19 -8q8 -3 19 -6l38 -12q-51 -58 -123 -133h-4q-92 33 -236 102q-52 24 -126 65l-111 64q-28 -8 -88 -18q-74 -9 -119 -9q-341 0 -576 241
q-231 238 -231 574q0 351 239 590q241 240 599 240q339 0 566 -234q226 -233 226 -577v-2zM1504 799q0 274 -173 459q-176 188 -443 188q-259 0 -436 -191q-174 -189 -174 -458q0 -265 174 -454q179 -193 440 -193q267 0 442 190q170 186 170 457v2z" />
    <glyph glyph-name="r" unicode="r" horiz-adv-x="1122" 
d="M167 1593l46 3l46 3q82 5 139 5q170 0 291 -43q41 -14 81 -39q50 -32 88 -75q46 -52 71 -117q29 -76 29 -167q0 -148 -75 -259q-29 -43 -69 -79q-31 -28 -67 -51q-63 -46 -136 -63v-4l414 -539q87 -117 127 -164v-4h-229l-504 678h-68v-678h-184v1593zM765 1151
q0 285 -332 285q-53 0 -82 -4v-603q7 -1 25 -1l35 -1q95 0 176 37q77 37 121 97q57 77 57 188v2z" />
    <glyph glyph-name="s" unicode="s" horiz-adv-x="897" 
d="M802 397q0 -168 -124 -287q-137 -133 -367 -133q-133 0 -240 37l8 179l74 -25q74 -18 160 -18q117 0 199 67q87 71 87 186q0 136 -135 254l-99 84q-53 46 -91 82q-174 171 -174 367q0 171 121 288q131 128 350 128q114 0 182 -21q-6 -86 -8 -174h-4q-35 13 -68 16
q-35 9 -86 9q-126 0 -206 -66q-83 -66 -83 -174q0 -112 90 -209q34 -35 97 -89l114 -99q103 -96 148 -176q55 -99 55 -224v-2z" />
    <glyph glyph-name="t" unicode="t" horiz-adv-x="1181" 
d="M495 1432h-475v165h1141v-165h-475v-1432h-191v1432z" />
    <glyph glyph-name="u" unicode="u" horiz-adv-x="1509" 
d="M143 1597h193v-907q0 -253 75 -371q105 -167 332 -167q226 0 340 151q92 128 92 404v890h187v-899q0 -323 -127 -493q-158 -230 -494 -230q-347 0 -500 250q-98 159 -98 457v915z" />
    <glyph glyph-name="v" unicode="v" horiz-adv-x="1368" 
d="M692 -23h-20l-397 945q-82 193 -144 341l-137 334h211l123 -310l260 -637q51 -130 100 -271h2q91 249 234 600l199 491q50 120 51 123v4h200l-138 -334z" />
    <glyph glyph-name="w" unicode="w" horiz-adv-x="1910" 
d="M1474 -39h-26q-143 353 -234 583q-88 221 -140 355q-47 123 -73 196q-21 59 -35 105h-2l-37 -106l-76 -196q-54 -136 -143 -355l-237 -582h-25l-264 997q-49 183 -85 319q-29 112 -49 189l-30 131h197v-4q0 -5 7 -31q3 -12 9 -35l137 -523q76 -301 135 -558h4
q32 95 81 227l122 324l135 318q5 11 8 19l107 249h23l126 -305q34 -83 62 -148l59 -139l120 -319q48 -130 79 -217h2l127 542l152 600h182l-34 -130q-21 -79 -49 -189q-35 -138 -81 -320z" />
    <glyph glyph-name="x" unicode="x" horiz-adv-x="1224" 
d="M501 805l-114 190l-292 476l-77 122v4h229v-4l365 -612h2l214 363q51 84 87 143l66 106v4h211v-4l-474 -776l484 -813v-4h-228v4q-3 5 -16 28l-246 437q-61 99 -104 180h-4q-48 -92 -97 -172l-258 -444q-13 -23 -16 -29v-4h-215v4q3 5 76 126z" />
    <glyph glyph-name="y" unicode="y" horiz-adv-x="1198" 
d="M693 635v-635h-191v627l-333 617l-166 318l-15 35h215v-4q3 -7 13 -28q13 -27 34 -71l64 -126l286 -549h4q32 67 84 168l258 508l46 98v4h204l-14 -35q-17 -36 -50 -102q-44 -86 -115 -219q-84 -160 -204 -383z" />
    <glyph glyph-name="z" unicode="z" horiz-adv-x="1181" 
d="M634 717q-32 -59 -75 -134l-155 -275q-43 -76 -77 -136l-2 -6h776v-166h-1077v4l198 358l376 687l217 389h-730v159h1029v-4l-182 -336q-50 -91 -92 -168q-49 -89 -93 -167z" />
    <glyph glyph-name="braceleft" unicode="{" horiz-adv-x="659" 
d="M581 -188l-56 -1q-37 1 -65 5q-97 18 -153 68q-76 66 -88 190q-5 42 -3 115q1 27 3 67q1 8 1 17l2 22v4l1 26q5 86 5 134q0 69 -9 108q-36 175 -201 172v74q171 -6 201 172q7 40 6 109q0 46 -4 134l-5 136q-2 72 3 115q14 123 89 189q60 52 152 65q64 9 121 6v-76
q-74 0 -114 -14q-41 -16 -65 -51q-29 -44 -38 -123q-3 -37 -1 -104q1 -25 3 -62l10 -192q0 -66 -6 -103q-34 -205 -188 -234l-2 -6q155 -28 190 -237q6 -37 6 -103l-13 -254q-2 -67 1 -102q16 -144 105 -174q25 -10 58 -13q19 -2 54 -2v-77z" />
    <glyph glyph-name="bar" unicode="|" horiz-adv-x="595" 
d="M366 1536v-2048h-139v2048h139z" />
    <glyph glyph-name="braceright" unicode="}" horiz-adv-x="659" 
d="M640 739q-171 0 -203 -172q-6 -40 -6 -110q1 -46 5 -133q1 -6 1 -18l3 -51q2 -39 2 -67q2 -72 -2 -114q-14 -124 -90 -190q-60 -54 -152 -66q-68 -6 -123 -6v77q76 0 115 15q89 30 102 174q3 36 1 102l-5 111q-1 10 -1 16q-5 83 -6 127q-1 66 5 103q38 207 190 235v4
q-153 32 -190 238q-6 37 -5 103q1 44 6 127q0 7 1 17l5 110q2 67 -1 104q-13 141 -102 174q-26 9 -59 12q-20 2 -56 2v76q65 4 123 -4q95 -17 153 -68q75 -65 89 -188q4 -43 2 -115q-1 -28 -3 -67l-4 -70q-4 -87 -5 -134q0 -69 7 -108q40 -172 203 -172v-74z" />
    <glyph glyph-name="asciitilde" unicode="~" horiz-adv-x="1103" 
d="M755 586q-67 0 -146 33q-25 10 -68 32l-35 16q-20 10 -35 17q-59 33 -111 33q-55 0 -104 -42q-33 -29 -76 -91l-82 80q104 174 270 174q65 0 144 -35l131 -62q61 -34 112 -34q101 0 172 131l82 -78q-107 -174 -252 -174h-2z" />
    <glyph glyph-name="dieresis" unicode="&#xa8;" horiz-adv-x="1024" 
 />
    <glyph glyph-name="copyright" unicode="&#xa9;" horiz-adv-x="1585" 
d="M880 1214q47 0 74 -4q38 -3 69 -12l-6 -106l-55 12q-37 6 -72 6q-137 0 -224 -76q-91 -79 -91 -215q0 -143 94 -229q85 -78 209 -78q30 0 71 8q39 4 60 17h4l6 -105q-35 -13 -72 -18l-35 -4q-23 -2 -42 -2q-187 0 -305 109q-119 111 -119 292q0 190 126 301
q119 104 306 104h2zM794 1526q301 0 507 -203q207 -205 206 -510q0 -292 -207 -502q-210 -215 -514 -215q-299 0 -505 211q-204 208 -204 504q0 293 212 504t503 211h2zM792 193q252 0 429 180t177 438q0 262 -182 443q-178 178 -426 178q-247 0 -423 -180
q-179 -182 -179 -443q0 -256 175 -436t427 -180h2z" />
    <glyph glyph-name="registered" unicode="&#xae;" horiz-adv-x="821" 
d="M530 1346q0 -33 -15 -58q-12 -20 -32 -35l-15 -9l-16 -7v-4l123 -166h-76q-6 0 -8 4q-7 10 -11 15l-104 139h-12v-158h-72v387q4 1 14 2l68 2q53 0 78 -10q13 -4 25 -12q15 -8 26 -20q27 -29 27 -68v-2zM456 1343q0 52 -73 52h-19v-115h12q26 0 41 6q39 16 39 55v2z
M759 1249q0 -143 -103 -246q-104 -104 -251 -104q-146 0 -246 102q-98 101 -98 244q0 144 104 248t252 104q143 0 243 -101q99 -101 99 -245v-2zM684 1249q0 117 -81 200q-80 83 -194 83q-115 0 -194 -83q-78 -83 -78 -202q0 -118 79 -200t193 -82q118 0 197 82
q78 81 78 200v2z" />
    <glyph glyph-name="acute" unicode="&#xb4;" horiz-adv-x="1024" 
 />
    <glyph glyph-name="paragraph" unicode="&#xb6;" horiz-adv-x="1126" 
d="M601 -143v768h-20q-190 0 -318 97q-145 111 -145 308q0 207 132 329q155 142 470 142q153 0 232 -16v-1628h-101v1556h-147v-1556h-103z" />
    <glyph glyph-name="onequarter" unicode="&#xbc;" horiz-adv-x="1503" 
d="M1328 270v-98h-124v-172h-136v172h-413v64l442 522h107v-488h124zM1070 270v228q1 55 2 86h-6q-123 -148 -254 -312v-2h258zM403 831h-135v605q0 19 -9 16l-157 -61l-31 82q108 43 256 114h76v-756zM137 -43l944 1679h108l-944 -1679h-108z" />
    <glyph glyph-name="onehalf" unicode="&#xbd;" horiz-adv-x="1503" 
d="M403 831h-135v605q0 18 -9 16l-98 -39q-3 -1 -6 -3l-51 -19l-33 82q108 43 256 114h76v-756zM137 -43l944 1679h108l-944 -1679h-108zM816 80q115 83 226 180q71 68 106 115q53 72 53 141q0 137 -151 137q-84 0 -148 -28q-39 -16 -57 -29l-2 -2l-2 115q96 57 236 57
q268 0 268 -223q0 -81 -40 -154q-34 -61 -108 -135q-92 -90 -170 -143h328v-111h-539v80z" />
    <glyph glyph-name="threequarters" unicode="&#xbe;" horiz-adv-x="1503" 
d="M1423 270v-98h-125v-172h-133v172h-416v64l442 522h107v-488h125zM1165 270v228q1 55 2 86h-6q-123 -148 -254 -312v-2h258zM217 1268q99 0 152 19q77 29 77 102q0 102 -137 102q-53 0 -119 -21q-10 -2 -23 -8l-24 -10q0 41 -4 111q81 34 194 34q99 0 168 -44
q82 -53 82 -148q0 -74 -47 -124q-41 -43 -104 -58v-2q72 -9 122 -56q56 -54 56 -135q0 -106 -93 -167q-80 -52 -190 -52q-123 0 -223 47l5 89q2 17 3 28h4q16 -14 49 -27q66 -26 146 -26q62 0 103 22q55 30 55 92q0 77 -78 108q-63 25 -174 19v105zM241 -43l944 1679h109
l-944 -1679h-109z" />
    <glyph glyph-name="Agrave" unicode="&#xc0;" horiz-adv-x="1355" 
d="M373 449q-47 -115 -86 -210l-65 -157l-8 -20q-2 -7 -6 -17l-17 -45h-197l147 352q32 76 68 163l463 1109h24l654 -1624h-209l-10 32l-166 417h-592zM903 608v6l-169 445q-39 104 -56 162h-4q-18 -56 -59 -162l-179 -451h467zM717 1688l-315 188l69 109l287 -238z" />
    <glyph glyph-name="Aacute" unicode="&#xc1;" horiz-adv-x="1355" 
d="M373 449q-47 -115 -86 -210l-65 -157l-8 -20q-2 -7 -6 -17l-17 -45h-197l147 352q32 76 68 163l463 1109h24l654 -1624h-209l-10 32l-166 417h-592zM903 608v6l-169 445q-39 104 -56 162h-4q-18 -56 -59 -162l-179 -451h467zM604 1747l289 238l68 -109l-316 -188z" />
    <glyph glyph-name="uni1EA2" unicode="&#x1ea2;" horiz-adv-x="1355" 
d="M373 449q-47 -115 -86 -210l-65 -157l-8 -20q-2 -7 -6 -17l-17 -45h-197l147 352q32 76 68 163l463 1109h24l654 -1624h-209l-10 32l-166 417h-592zM903 608v6l-169 445q-39 104 -56 162h-4q-18 -56 -59 -162l-179 -451h467zM676 2131q26 0 48 -5q27 -6 48 -19
q66 -42 66 -120q0 -43 -21 -82q-9 -15 -24 -34q-10 -13 -27 -32q-33 -36 -45 -64q-10 -23 -12 -73h-83q1 59 13 91q14 37 52 78q28 31 41 55q13 25 13 52q0 41 -33 62q-20 12 -49 12q-15 0 -27 -3q-12 -2 -26 -9q-17 -8 -30 -18h-20l-4 74q31 19 59 26q29 9 60 9h1z" />
    <glyph glyph-name="Atilde" unicode="&#xc3;" horiz-adv-x="1355" 
d="M373 449q-47 -115 -86 -210l-65 -157l-8 -20q-2 -7 -6 -17l-17 -45h-197l147 352q32 76 68 163l463 1109h24l654 -1624h-209l-10 32l-166 417h-592zM903 608v6l-169 445q-39 104 -56 162h-4q-18 -56 -59 -162l-179 -451h467zM434 1712q42 168 162 168q56 0 119 -47
q52 -39 90 -39q59 0 82 74l65 -10q-13 -69 -52 -116q-44 -52 -103 -52q-56 0 -111 39q-69 47 -104 47q-55 0 -80 -74z" />
    <glyph glyph-name="uni1EA0" unicode="&#x1ea0;" horiz-adv-x="1355" 
d="M373 449q-47 -115 -86 -210l-65 -157l-8 -20q-2 -7 -6 -17l-17 -45h-197l147 352q32 76 68 163l463 1109h24l654 -1624h-209l-10 32l-166 417h-592zM903 608v6l-169 445q-39 104 -56 162h-4q-18 -56 -59 -162l-179 -451h467zM585 -219q0 80 88 80q82 0 82 -82
q0 -86 -82 -86q-88 0 -88 86v2z" />
    <glyph glyph-name="Acircumflex" unicode="&#xc2;" horiz-adv-x="1355" 
d="M373 449q-47 -115 -86 -210l-65 -157l-8 -20q-2 -7 -6 -17l-17 -45h-197l147 352q32 76 68 163l463 1109h24l654 -1624h-209l-10 32l-166 417h-592zM903 608v6l-169 445q-39 104 -56 162h-4q-18 -56 -59 -162l-179 -451h467zM883 1645l-195 133l-198 -133l-45 55l247 225
l238 -225z" />
    <glyph glyph-name="uni1EA6" unicode="&#x1ea6;" horiz-adv-x="1355" 
d="M373 449q-47 -115 -86 -210l-65 -157l-8 -20q-2 -7 -6 -17l-17 -45h-197l147 352q32 76 68 163l463 1109h24l654 -1624h-209l-10 32l-166 417h-592zM903 608v6l-169 445q-39 104 -56 162h-4q-18 -56 -59 -162l-179 -451h467zM847 1868l-315 188l69 109l287 -238z
M883 1645l-195 133l-198 -133l-45 55l247 225l238 -225z" />
    <glyph glyph-name="uni1EA4" unicode="&#x1ea4;" horiz-adv-x="1355" 
d="M373 449q-47 -115 -86 -210l-65 -157l-8 -20q-2 -7 -6 -17l-17 -45h-197l147 352q32 76 68 163l463 1109h24l654 -1624h-209l-10 32l-166 417h-592zM903 608v6l-169 445q-39 104 -56 162h-4q-18 -56 -59 -162l-179 -451h467zM492 1907l289 238l68 -109l-316 -188z
M883 1645l-195 133l-198 -133l-45 55l247 225l238 -225z" />
    <glyph glyph-name="uni1EA8" unicode="&#x1ea8;" horiz-adv-x="1355" 
d="M373 449q-47 -115 -86 -210l-65 -157l-8 -20q-2 -7 -6 -17l-17 -45h-197l147 352q32 76 68 163l463 1109h24l654 -1624h-209l-10 32l-166 417h-592zM903 608v6l-169 445q-39 104 -56 162h-4q-18 -56 -59 -162l-179 -451h467zM883 1645l-195 133l-198 -133l-45 55l247 225
l238 -225zM873 2266q26 0 48 -5q27 -6 48 -19q66 -42 66 -120q0 -43 -21 -82q-9 -15 -24 -34q-10 -13 -27 -32q-33 -36 -45 -64q-10 -23 -12 -73h-83q1 59 13 91q14 37 52 78q28 31 41 55q13 25 13 52q0 41 -33 62q-20 12 -49 12q-15 0 -27 -3q-12 -2 -26 -9q-17 -8 -30 -18
h-20l-4 74q31 19 59 26q29 9 60 9h1z" />
    <glyph glyph-name="uni1EAA" unicode="&#x1eaa;" horiz-adv-x="1355" 
d="M373 449q-47 -115 -86 -210l-65 -157l-8 -20q-2 -7 -6 -17l-17 -45h-197l147 352q32 76 68 163l463 1109h24l654 -1624h-209l-10 32l-166 417h-592zM903 608v6l-169 445q-39 104 -56 162h-4q-18 -56 -59 -162l-179 -451h467zM509 1951q42 168 162 168q56 0 119 -47
q52 -39 90 -39q59 0 82 74l65 -10q-13 -69 -52 -116q-44 -52 -103 -52q-56 0 -111 39q-69 47 -104 47q-55 0 -80 -74zM883 1645l-195 133l-198 -133l-45 55l247 225l238 -225z" />
    <glyph glyph-name="uni1EAC" unicode="&#x1eac;" horiz-adv-x="1355" 
d="M373 449q-47 -115 -86 -210l-65 -157l-8 -20q-2 -7 -6 -17l-17 -45h-197l147 352q32 76 68 163l463 1109h24l654 -1624h-209l-10 32l-166 417h-592zM903 608v6l-169 445q-39 104 -56 162h-4q-18 -56 -59 -162l-179 -451h467zM585 -219q0 80 88 80q82 0 82 -82
q0 -86 -82 -86q-88 0 -88 86v2zM883 1645l-195 133l-198 -133l-45 55l247 225l238 -225z" />
    <glyph glyph-name="Abreve" unicode="&#x102;" horiz-adv-x="1355" 
d="M373 449q-47 -115 -86 -210l-65 -157l-8 -20q-2 -7 -6 -17l-17 -45h-197l147 352q32 76 68 163l463 1109h24l654 -1624h-209l-10 32l-166 417h-592zM903 608v6l-169 445q-39 104 -56 162h-4q-18 -56 -59 -162l-179 -451h467zM538 1935q19 -125 133 -125q118 0 137 125h90
q-5 -91 -63 -155q-64 -72 -168 -72q-101 0 -162 72q-54 64 -59 155h92z" />
    <glyph glyph-name="uni1EB0" unicode="&#x1eb0;" horiz-adv-x="1355" 
d="M373 449q-47 -115 -86 -210l-65 -157l-8 -20q-2 -7 -6 -17l-17 -45h-197l147 352q32 76 68 163l463 1109h24l654 -1624h-209l-10 32l-166 417h-592zM903 608v6l-169 445q-39 104 -56 162h-4q-18 -56 -59 -162l-179 -451h467zM741 1917l-315 188l69 109l287 -238z
M538 1935q19 -125 133 -125q118 0 137 125h90q-5 -91 -63 -155q-64 -72 -168 -72q-101 0 -162 72q-54 64 -59 155h92z" />
    <glyph glyph-name="uni1EAE" unicode="&#x1eae;" horiz-adv-x="1355" 
d="M373 449q-47 -115 -86 -210l-65 -157l-8 -20q-2 -7 -6 -17l-17 -45h-197l147 352q32 76 68 163l463 1109h24l654 -1624h-209l-10 32l-166 417h-592zM903 608v6l-169 445q-39 104 -56 162h-4q-18 -56 -59 -162l-179 -451h467zM581 1966l289 238l68 -109l-316 -188z
M538 1935q19 -125 133 -125q118 0 137 125h90q-5 -91 -63 -155q-64 -72 -168 -72q-101 0 -162 72q-54 64 -59 155h92z" />
    <glyph glyph-name="uni1EB2" unicode="&#x1eb2;" horiz-adv-x="1355" 
d="M373 449q-47 -115 -86 -210l-65 -157l-8 -20q-2 -7 -6 -17l-17 -45h-197l147 352q32 76 68 163l463 1109h24l654 -1624h-209l-10 32l-166 417h-592zM903 608v6l-169 445q-39 104 -56 162h-4q-18 -56 -59 -162l-179 -451h467zM538 1935q19 -125 133 -125q118 0 137 125h90
q-5 -91 -63 -155q-64 -72 -168 -72q-101 0 -162 72q-54 64 -59 155h92zM676 2337q26 0 48 -5q27 -6 48 -19q66 -42 66 -120q0 -43 -21 -82q-9 -15 -24 -34q-10 -13 -27 -32q-33 -36 -45 -64q-10 -23 -12 -73h-83q1 59 13 91q14 37 52 78q28 31 41 55q13 25 13 52
q0 41 -33 62q-20 12 -49 12q-15 0 -27 -3q-12 -2 -26 -9q-17 -8 -30 -18h-20l-4 74q31 19 59 26q29 9 60 9h1z" />
    <glyph glyph-name="uni1EB4" unicode="&#x1eb4;" horiz-adv-x="1355" 
d="M373 449q-47 -115 -86 -210l-65 -157l-8 -20q-2 -7 -6 -17l-17 -45h-197l147 352q32 76 68 163l463 1109h24l654 -1624h-209l-10 32l-166 417h-592zM903 608v6l-169 445q-39 104 -56 162h-4q-18 -56 -59 -162l-179 -451h467zM499 2000q42 168 162 168q56 0 119 -47
q52 -39 90 -39q59 0 82 74l65 -10q-13 -69 -52 -116q-44 -52 -103 -52q-56 0 -111 39q-69 47 -104 47q-55 0 -80 -74zM538 1935q19 -125 133 -125q118 0 137 125h90q-5 -91 -63 -155q-64 -72 -168 -72q-101 0 -162 72q-54 64 -59 155h92z" />
    <glyph glyph-name="uni1EB6" unicode="&#x1eb6;" horiz-adv-x="1355" 
d="M373 449q-47 -115 -86 -210l-65 -157l-8 -20q-2 -7 -6 -17l-17 -45h-197l147 352q32 76 68 163l463 1109h24l654 -1624h-209l-10 32l-166 417h-592zM903 608v6l-169 445q-39 104 -56 162h-4q-18 -56 -59 -162l-179 -451h467zM585 -219q0 80 88 80q82 0 82 -82
q0 -86 -82 -86q-88 0 -88 86v2zM538 1935q19 -125 133 -125q118 0 137 125h90q-5 -91 -63 -155q-64 -72 -168 -72q-101 0 -162 72q-54 64 -59 155h92z" />
    <glyph glyph-name="Egrave" unicode="&#xc8;" horiz-adv-x="1003" 
d="M167 1597h723v-167h-533v-533h492v-164h-492v-563h555v-170h-745v1597zM599 1681l-315 187l67 108l289 -235z" />
    <glyph glyph-name="Eacute" unicode="&#xc9;" horiz-adv-x="1003" 
d="M167 1597h723v-167h-533v-533h492v-164h-492v-563h555v-170h-745v1597zM398 1741l289 235l68 -108l-316 -187z" />
    <glyph glyph-name="uni1EBA" unicode="&#x1eba;" horiz-adv-x="1003" 
d="M167 1597h723v-167h-533v-533h492v-164h-492v-563h555v-170h-745v1597zM541 2105q25 0 48 -5q27 -6 48 -19q66 -42 66 -120q0 -43 -21 -82q-9 -15 -24 -34q-10 -13 -27 -32q-34 -36 -45 -64q-10 -23 -12 -73h-84q2 59 14 91q14 37 52 78q28 31 41 55q13 25 13 52
q0 41 -33 62q-20 12 -49 12q-15 0 -27 -3q-13 -2 -26 -9q-17 -8 -30 -18h-20l-4 74q31 19 59 26q29 9 60 9h1z" />
    <glyph glyph-name="uni1EBC" unicode="&#x1ebc;" horiz-adv-x="1003" 
d="M167 1597h723v-167h-533v-533h492v-164h-492v-563h555v-170h-745v1597zM279 1712q42 168 162 168q56 0 119 -47q52 -39 90 -39q59 0 82 74l65 -10q-13 -69 -52 -116q-44 -52 -103 -52q-56 0 -111 39q-69 47 -104 47q-55 0 -80 -74z" />
    <glyph glyph-name="uni1EB8" unicode="&#x1eb8;" horiz-adv-x="1003" 
d="M167 1597h723v-167h-533v-533h492v-164h-492v-563h555v-170h-745v1597zM451 -219q0 80 88 80q82 0 82 -82q0 -86 -82 -86q-88 0 -88 86v2z" />
    <glyph glyph-name="Ecircumflex" unicode="&#xca;" horiz-adv-x="1003" 
d="M167 1597h723v-167h-533v-533h492v-164h-492v-563h555v-170h-745v1597zM742 1671l-192 133l-201 -133l-43 55l248 226l238 -226z" />
    <glyph glyph-name="uni1EC0" unicode="&#x1ec0;" horiz-adv-x="1003" 
d="M167 1597h723v-167h-533v-533h492v-164h-492v-563h555v-170h-745v1597zM706 1895l-315 187l67 108l289 -235zM742 1671l-192 133l-201 -133l-43 55l248 226l238 -226z" />
    <glyph glyph-name="uni1EBE" unicode="&#x1ebe;" horiz-adv-x="1003" 
d="M167 1597h723v-167h-533v-533h492v-164h-492v-563h555v-170h-745v1597zM362 1955l289 235l68 -108l-316 -187zM742 1671l-192 133l-201 -133l-43 55l248 226l238 -226z" />
    <glyph glyph-name="uni1EC2" unicode="&#x1ec2;" horiz-adv-x="1003" 
d="M167 1597h723v-167h-533v-533h492v-164h-492v-563h555v-170h-745v1597zM737 2301q25 0 48 -5q27 -6 48 -19q66 -42 66 -120q0 -43 -21 -82q-9 -15 -24 -34q-10 -13 -27 -32q-34 -36 -45 -64q-10 -23 -12 -73h-84q2 59 14 91q14 37 52 78q28 31 41 55q13 25 13 52
q0 41 -33 62q-20 12 -49 12q-15 0 -27 -3q-13 -2 -26 -9q-17 -8 -30 -18h-20l-4 74q31 19 59 26q29 9 60 9h1zM742 1671l-192 133l-201 -133l-43 55l248 226l238 -226z" />
    <glyph glyph-name="uni1EC4" unicode="&#x1ec4;" horiz-adv-x="1003" 
d="M167 1597h723v-167h-533v-533h492v-164h-492v-563h555v-170h-745v1597zM358 1954q42 168 162 168q56 0 119 -47q52 -39 90 -39q59 0 82 74l65 -10q-13 -69 -52 -116q-44 -52 -103 -52q-56 0 -111 39q-69 47 -104 47q-55 0 -80 -74zM742 1671l-192 133l-201 -133l-43 55
l248 226l238 -226z" />
    <glyph glyph-name="uni1EC6" unicode="&#x1ec6;" horiz-adv-x="1003" 
d="M167 1597h723v-167h-533v-533h492v-164h-492v-563h555v-170h-745v1597zM451 -219q0 80 88 80q82 0 82 -82q0 -86 -82 -86q-88 0 -88 86v2zM742 1671l-192 133l-201 -133l-43 55l248 226l238 -226z" />
    <glyph glyph-name="Igrave" unicode="&#xcc;" horiz-adv-x="524" 
d="M358 0h-190v1597h190v-1597zM315 1681l-315 187l68 108l288 -235z" />
    <glyph glyph-name="Iacute" unicode="&#xcd;" horiz-adv-x="524" 
d="M358 0h-191v1597h191v-1597zM165 1741l289 235l67 -108l-315 -187z" />
    <glyph glyph-name="uni1EC8" unicode="&#x1ec8;" horiz-adv-x="524" 
d="M357 0h-190v1597h190v-1597zM272 2105q26 0 49 -5q27 -6 48 -19q66 -42 66 -120q0 -43 -22 -82q-8 -15 -23 -34q-10 -13 -27 -32q-34 -36 -46 -64q-10 -23 -12 -73h-83q2 59 14 91q14 37 52 78q28 31 40 55q14 25 14 52q0 41 -33 62q-20 12 -49 12q-15 0 -27 -3
q-13 -2 -26 -9q-17 -8 -31 -18h-20l-3 74q31 19 59 26q29 9 60 9v0z" />
    <glyph glyph-name="Itilde" unicode="&#x128;" horiz-adv-x="524" 
d="M357 0h-190v1597h190v-1597zM19 1712q42 168 162 168q56 0 119 -47q51 -39 90 -39q59 0 82 74l65 -10q-13 -69 -52 -116q-44 -52 -104 -52q-55 0 -110 39q-69 47 -105 47q-54 0 -79 -74z" />
    <glyph glyph-name="uni1ECA" unicode="&#x1eca;" horiz-adv-x="524" 
d="M357 0h-190v1597h190v-1597zM173 -219q0 80 88 80q82 0 82 -82q0 -86 -82 -86q-88 0 -88 86v2z" />
    <glyph glyph-name="Ograve" unicode="&#xd2;" 
d="M1705 805q0 -346 -231 -585q-236 -245 -590 -245q-338 0 -573 240q-234 238 -234 573q0 353 238 591q239 239 598 239q340 0 567 -234q225 -233 225 -577v-2zM1504 799q0 273 -175 458q-176 187 -439 187q-260 0 -436 -188q-174 -186 -174 -459q0 -266 176 -454
q178 -191 438 -191q263 0 438 188q172 185 172 457v2zM951 1692l-315 186l68 109l288 -236z" />
    <glyph glyph-name="Oacute" unicode="&#xd3;" 
d="M1705 805q0 -346 -231 -585q-236 -245 -590 -245q-338 0 -573 240q-234 238 -234 573q0 353 238 591q239 239 598 239q340 0 567 -234q225 -233 225 -577v-2zM1504 799q0 273 -175 458q-176 187 -439 187q-260 0 -436 -188q-174 -186 -174 -459q0 -266 176 -454
q178 -191 438 -191q263 0 438 188q172 185 172 457v2zM792 1751l286 236l68 -109l-313 -186z" />
    <glyph glyph-name="uni1ECE" unicode="&#x1ece;" 
d="M1705 805q0 -346 -231 -585q-236 -245 -590 -245q-338 0 -573 240q-234 238 -234 573q0 353 238 591q239 239 598 239q340 0 567 -234q225 -233 225 -577v-2zM1504 799q0 273 -175 458q-176 187 -439 187q-260 0 -436 -188q-174 -186 -174 -459q0 -266 176 -454
q178 -191 438 -191q263 0 438 188q172 185 172 457v2zM869 2105q26 0 49 -5q27 -6 48 -19q66 -42 66 -120q0 -43 -22 -82q-8 -15 -23 -34q-10 -13 -27 -32q-34 -36 -46 -64q-10 -23 -11 -73h-84q2 59 14 91q14 37 52 78q28 31 40 55q14 25 14 52q0 41 -33 62q-20 12 -49 12
q-15 0 -27 -3q-13 -2 -26 -9q-17 -8 -30 -18h-20l-4 74q31 19 59 26q29 9 60 9v0z" />
    <glyph glyph-name="Otilde" unicode="&#xd5;" 
d="M1705 805q0 -346 -231 -585q-236 -245 -590 -245q-338 0 -573 240q-234 238 -234 573q0 353 238 591q239 239 598 239q340 0 567 -234q225 -233 225 -577v-2zM1504 799q0 273 -175 458q-176 187 -439 187q-260 0 -436 -188q-174 -186 -174 -459q0 -266 176 -454
q178 -191 438 -191q263 0 438 188q172 185 172 457v2zM644 1716q38 170 160 170q56 0 121 -49q56 -39 90 -39q59 0 80 76l67 -10q-13 -69 -52 -116q-45 -52 -105 -52q-56 0 -111 39q-65 47 -104 47q-53 0 -78 -74z" />
    <glyph glyph-name="uni1ECC" unicode="&#x1ecc;" 
d="M1705 805q0 -346 -231 -585q-236 -245 -590 -245q-338 0 -573 240q-234 238 -234 573q0 353 238 591q239 239 598 239q340 0 567 -234q225 -233 225 -577v-2zM1504 799q0 273 -175 458q-176 187 -439 187q-260 0 -436 -188q-174 -186 -174 -459q0 -266 176 -454
q178 -191 438 -191q263 0 438 188q172 185 172 457v2zM806 -219q0 80 88 80q82 0 82 -82q0 -86 -82 -86q-88 0 -88 86v2z" />
    <glyph glyph-name="Ocircumflex" unicode="&#xd4;" 
d="M1705 805q0 -346 -231 -585q-236 -245 -590 -245q-338 0 -573 240q-234 238 -234 573q0 353 238 591q239 239 598 239q340 0 567 -234q225 -233 225 -577v-2zM1504 799q0 273 -175 458q-176 187 -439 187q-260 0 -436 -188q-174 -186 -174 -459q0 -266 176 -454
q178 -191 438 -191q263 0 438 188q172 185 172 457v2zM1095 1677l-195 135l-198 -133l-45 56l247 223l238 -225z" />
    <glyph glyph-name="uni1ED2" unicode="&#x1ed2;" 
d="M1705 805q0 -346 -231 -585q-236 -245 -590 -245q-338 0 -573 240q-234 238 -234 573q0 353 238 591q239 239 598 239q340 0 567 -234q225 -233 225 -577v-2zM1504 799q0 273 -175 458q-176 187 -439 187q-260 0 -436 -188q-174 -186 -174 -459q0 -266 176 -454
q178 -191 438 -191q263 0 438 188q172 185 172 457v2zM1067 1897l-315 186l68 109l288 -236zM1095 1677l-195 135l-198 -133l-45 56l247 223l238 -225z" />
    <glyph glyph-name="uni1ED0" unicode="&#x1ed0;" 
d="M1705 805q0 -346 -231 -585q-236 -245 -590 -245q-338 0 -573 240q-234 238 -234 573q0 353 238 591q239 239 598 239q340 0 567 -234q225 -233 225 -577v-2zM1504 799q0 273 -175 458q-176 187 -439 187q-260 0 -436 -188q-174 -186 -174 -459q0 -266 176 -454
q178 -191 438 -191q263 0 438 188q172 185 172 457v2zM712 1965l286 236l68 -109l-313 -186zM1095 1677l-195 135l-198 -133l-45 56l247 223l238 -225z" />
    <glyph glyph-name="uni1ED4" unicode="&#x1ed4;" 
d="M1705 805q0 -346 -231 -585q-236 -245 -590 -245q-338 0 -573 240q-234 238 -234 573q0 353 238 591q239 239 598 239q340 0 567 -234q225 -233 225 -577v-2zM1504 799q0 273 -175 458q-176 187 -439 187q-260 0 -436 -188q-174 -186 -174 -459q0 -266 176 -454
q178 -191 438 -191q263 0 438 188q172 185 172 457v2zM1109 2293q26 0 49 -5q27 -6 48 -19q66 -42 66 -120q0 -43 -22 -82q-8 -15 -23 -34q-10 -13 -27 -32q-34 -36 -46 -64q-10 -23 -11 -73h-84q2 59 14 91q14 37 52 78q28 31 40 55q14 25 14 52q0 41 -33 62q-20 12 -49 12
q-15 0 -27 -3q-13 -2 -26 -9q-17 -8 -30 -18h-20l-4 74q31 19 59 26q29 9 60 9v0zM1094 1677l-195 135l-198 -133l-45 56l248 223l237 -225z" />
    <glyph glyph-name="uni1ED6" unicode="&#x1ed6;" 
d="M1705 805q0 -346 -231 -585q-236 -245 -590 -245q-338 0 -573 240q-234 238 -234 573q0 353 238 591q239 239 598 239q340 0 567 -234q225 -233 225 -577v-2zM1504 799q0 273 -175 458q-176 187 -439 187q-260 0 -436 -188q-174 -186 -174 -459q0 -266 176 -454
q178 -191 438 -191q263 0 438 188q172 185 172 457v2zM707 1966q38 170 160 170q56 0 121 -49q56 -39 90 -39q59 0 80 76l67 -10q-13 -69 -52 -116q-45 -52 -105 -52q-56 0 -111 39q-65 47 -104 47q-53 0 -78 -74zM1095 1677l-195 135l-198 -133l-45 56l247 223l238 -225z
" />
    <glyph glyph-name="uni1ED8" unicode="&#x1ed8;" 
d="M1705 805q0 -346 -231 -585q-236 -245 -590 -245q-338 0 -573 240q-234 238 -234 573q0 353 238 591q239 239 598 239q340 0 567 -234q225 -233 225 -577v-2zM1504 799q0 273 -175 458q-176 187 -439 187q-260 0 -436 -188q-174 -186 -174 -459q0 -266 176 -454
q178 -191 438 -191q263 0 438 188q172 185 172 457v2zM806 -219q0 80 88 80q82 0 82 -82q0 -86 -82 -86q-88 0 -88 86v2zM1094 1677l-195 135l-198 -133l-45 56l248 223l237 -225z" />
    <glyph glyph-name="Ugrave" unicode="&#xd9;" horiz-adv-x="1509" 
d="M143 1597h193v-907q0 -253 75 -371q105 -167 332 -167q226 0 340 151q92 128 92 404v890h187v-899q0 -323 -127 -493q-158 -230 -494 -230q-347 0 -500 250q-98 159 -98 457v915zM802 1655l-313 188l68 109l286 -238z" />
    <glyph glyph-name="Uacute" unicode="&#xda;" horiz-adv-x="1509" 
d="M143 1597h193v-907q0 -253 75 -371q105 -167 332 -167q226 0 340 151q92 128 92 404v890h187v-899q0 -323 -127 -493q-158 -230 -494 -230q-347 0 -500 250q-98 159 -98 457v915zM686 1714l288 238l68 -109l-315 -188z" />
    <glyph glyph-name="uni1EE6" unicode="&#x1ee6;" horiz-adv-x="1509" 
d="M143 1597h193v-907q0 -253 75 -371q105 -167 332 -167q226 0 340 151q92 128 92 404v890h187v-899q0 -323 -127 -493q-158 -230 -494 -230q-347 0 -500 250q-98 159 -98 457v915zM731 2105q26 0 48 -5q27 -6 48 -19q66 -42 66 -120q0 -43 -21 -82q-9 -15 -24 -34
q-10 -13 -27 -32q-33 -36 -45 -64q-10 -23 -12 -73h-83q1 59 13 91q14 37 52 78q28 31 41 55q13 25 13 52q0 41 -33 62q-20 12 -49 12q-15 0 -27 -3q-12 -2 -26 -9q-17 -8 -30 -18h-20l-4 74q31 19 59 26q29 9 60 9h1z" />
    <glyph glyph-name="Utilde" unicode="&#x168;" horiz-adv-x="1509" 
d="M143 1597h193v-907q0 -253 75 -371q105 -167 332 -167q226 0 340 151q92 128 92 404v890h187v-899q0 -323 -127 -493q-158 -230 -494 -230q-347 0 -500 250q-98 159 -98 457v915zM493 1716q38 170 160 170q56 0 121 -49q56 -39 90 -39q59 0 80 76l67 -10
q-13 -69 -52 -116q-45 -52 -105 -52q-56 0 -111 39q-65 47 -104 47q-53 0 -78 -74z" />
    <glyph glyph-name="uni1EE4" unicode="&#x1ee4;" horiz-adv-x="1509" 
d="M143 1597h193v-907q0 -253 75 -371q105 -167 332 -167q226 0 340 151q92 128 92 404v890h187v-899q0 -323 -127 -493q-158 -230 -494 -230q-347 0 -500 250q-98 159 -98 457v915zM667 -219q0 80 88 80q82 0 82 -82q0 -86 -82 -86q-88 0 -88 86v2z" />
    <glyph glyph-name="Uhorn" unicode="&#x1af;" horiz-adv-x="1509" 
d="M143 1597h193v-907q0 -253 75 -371q105 -167 332 -167q226 0 340 151q92 128 92 404v890h187v-899q0 -323 -127 -493q-158 -230 -494 -230q-347 0 -500 250q-98 159 -98 457v915zM1591 1651q-1 -4 -1 -7q-14 -55 -53 -107q-29 -39 -72 -75q-73 -63 -153 -88l-39 83l68 28
q72 41 87 89q-29 9 -53 33q-38 38 -38 92q0 55 38.5 93.5t93.5 38.5q54 0 92.5 -38.5t38.5 -93.5q0 -26 -9 -48z" />
    <glyph glyph-name="uni1EEA" unicode="&#x1eea;" horiz-adv-x="1509" 
d="M802 1655l-313 188l68 109l286 -238zM1362 1394v-696q0 -323 -127 -493q-158 -230 -494 -230q-347 0 -500 250q-98 159 -98 457v915h193v-907q0 -253 75 -371q105 -167 332 -167q226 0 340 151q92 128 92 404v890h187v-99q53 35 66 76q-29 9 -53 33q-38 38 -38 92
q0 55 38.5 93.5t93.5 38.5q54 0 92.5 -38.5t38.5 -93.5q0 -26 -9 -48q-1 -4 -1 -7q-14 -55 -53 -107q-29 -39 -72 -75q-50 -43 -103 -68z" />
    <glyph glyph-name="uni1EE8" unicode="&#x1ee8;" horiz-adv-x="1509" 
d="M686 1714l288 238l68 -109l-315 -188zM1362 1394v-696q0 -323 -127 -493q-158 -230 -494 -230q-347 0 -500 250q-98 159 -98 457v915h193v-907q0 -253 75 -371q105 -167 332 -167q226 0 340 151q92 128 92 404v890h187v-99q53 35 66 76q-29 9 -53 33q-38 38 -38 92
q0 55 38.5 93.5t93.5 38.5q54 0 92.5 -38.5t38.5 -93.5q0 -26 -9 -48q-1 -4 -1 -7q-14 -55 -53 -107q-29 -39 -72 -75q-50 -43 -103 -68z" />
    <glyph glyph-name="uni1EEC" unicode="&#x1eec;" horiz-adv-x="1509" 
d="M731 2105q26 0 48 -5q27 -6 48 -19q66 -42 66 -120q0 -43 -21 -82q-9 -15 -24 -34q-10 -13 -27 -32q-33 -36 -45 -64q-10 -23 -12 -73h-83q1 59 13 91q14 37 52 78q28 31 41 55q13 25 13 52q0 41 -33 62q-20 12 -49 12q-15 0 -27 -3q-12 -2 -26 -9q-17 -8 -30 -18h-20
l-4 74q31 19 59 26q29 9 60 9h1zM1362 1394v-696q0 -323 -127 -493q-158 -230 -494 -230q-347 0 -500 250q-98 159 -98 457v915h193v-907q0 -253 75 -371q105 -167 332 -167q226 0 340 151q92 128 92 404v890h187v-99q53 35 66 76q-29 9 -53 33q-38 38 -38 92
q0 55 38.5 93.5t93.5 38.5q54 0 92.5 -38.5t38.5 -93.5q0 -26 -9 -48q-1 -4 -1 -7q-14 -55 -53 -107q-29 -39 -72 -75q-50 -43 -103 -68z" />
    <glyph glyph-name="uni1EEE" unicode="&#x1eee;" horiz-adv-x="1509" 
d="M493 1716q38 170 160 170q56 0 121 -49q56 -39 90 -39q59 0 80 76l67 -10q-13 -69 -52 -116q-45 -52 -105 -52q-56 0 -111 39q-65 47 -104 47q-53 0 -78 -74zM1362 1394v-696q0 -323 -127 -493q-158 -230 -494 -230q-347 0 -500 250q-98 159 -98 457v915h193v-907
q0 -253 75 -371q105 -167 332 -167q226 0 340 151q92 128 92 404v890h187v-99q53 35 66 76q-29 9 -53 33q-38 38 -38 92q0 55 38.5 93.5t93.5 38.5q54 0 92.5 -38.5t38.5 -93.5q0 -26 -9 -48q-1 -4 -1 -7q-14 -55 -53 -107q-29 -39 -72 -75q-50 -43 -103 -68z" />
    <glyph glyph-name="uni1EF0" unicode="&#x1ef0;" horiz-adv-x="1509" 
d="M667 -219q0 80 88 80q82 0 82 -82q0 -86 -82 -86q-88 0 -88 86v2zM1362 1394v-696q0 -323 -127 -493q-158 -230 -494 -230q-347 0 -500 250q-98 159 -98 457v915h193v-907q0 -253 75 -371q105 -167 332 -167q226 0 340 151q92 128 92 404v890h187v-99q53 35 66 76
q-29 9 -53 33q-38 38 -38 92q0 55 38.5 93.5t93.5 38.5q54 0 92.5 -38.5t38.5 -93.5q0 -26 -9 -48q-1 -4 -1 -7q-14 -55 -53 -107q-29 -39 -72 -75q-50 -43 -103 -68z" />
    <glyph glyph-name="Ohorn" unicode="&#x1a0;" 
d="M1705 805q0 -346 -231 -585q-236 -245 -590 -245q-338 0 -573 240q-234 238 -234 573q0 353 238 591q239 239 598 239q340 0 567 -234q225 -233 225 -577v-2zM1504 799q0 273 -175 458q-176 187 -439 187q-260 0 -436 -188q-174 -186 -174 -459q0 -266 176 -454
q178 -191 438 -191q263 0 438 188q172 185 172 457v2zM1635 1651q-1 -4 -1 -7q-14 -55 -53 -107q-29 -39 -72 -75q-73 -63 -153 -88l-39 83l68 28q72 41 87 89q-29 9 -53 33q-38 38 -38 92q0 55 38.5 93.5t93.5 38.5q54 0 92.5 -38.5t38.5 -93.5q0 -26 -9 -48z" />
    <glyph glyph-name="uni1EDC" unicode="&#x1edc;" 
d="M1504 799q0 273 -175 458q-176 187 -439 187q-260 0 -436 -188q-174 -186 -174 -459q0 -266 176 -454q178 -191 438 -191q263 0 438 188q172 185 172 457v2zM951 1692l-315 186l68 109l288 -236zM1447 1416q17 -15 33 -32q225 -233 225 -577v-2q0 -346 -231 -585
q-236 -245 -590 -245q-338 0 -573 240q-234 238 -234 573q0 353 238 591q239 239 598 239q262 0 457 -139l15 6q72 41 87 89q-29 9 -53 33q-38 38 -38 92q0 55 38.5 93.5t93.5 38.5q54 0 92.5 -38.5t38.5 -93.5q0 -26 -9 -48q-1 -4 -1 -7q-14 -55 -53 -107q-29 -39 -72 -75
q-30 -26 -62 -46z" />
    <glyph glyph-name="uni1EDA" unicode="&#x1eda;" 
d="M1504 799q0 273 -175 458q-176 187 -439 187q-260 0 -436 -188q-174 -186 -174 -459q0 -266 176 -454q178 -191 438 -191q263 0 438 188q172 185 172 457v2zM792 1751l286 236l68 -109l-313 -186zM1447 1416q17 -15 33 -32q225 -233 225 -577v-2q0 -346 -231 -585
q-236 -245 -590 -245q-338 0 -573 240q-234 238 -234 573q0 353 238 591q239 239 598 239q262 0 457 -139l15 6q72 41 87 89q-29 9 -53 33q-38 38 -38 92q0 55 38.5 93.5t93.5 38.5q54 0 92.5 -38.5t38.5 -93.5q0 -26 -9 -48q-1 -4 -1 -7q-14 -55 -53 -107q-29 -39 -72 -75
q-30 -26 -62 -46z" />
    <glyph glyph-name="uni1EDE" unicode="&#x1ede;" 
d="M1504 799q0 273 -175 458q-176 187 -439 187q-260 0 -436 -188q-174 -186 -174 -459q0 -266 176 -454q178 -191 438 -191q263 0 438 188q172 185 172 457v2zM869 2105q26 0 49 -5q27 -6 48 -19q66 -42 66 -120q0 -43 -22 -82q-8 -15 -23 -34q-10 -13 -27 -32
q-34 -36 -46 -64q-10 -23 -11 -73h-84q2 59 14 91q14 37 52 78q28 31 40 55q14 25 14 52q0 41 -33 62q-20 12 -49 12q-15 0 -27 -3q-13 -2 -26 -9q-17 -8 -30 -18h-20l-4 74q31 19 59 26q29 9 60 9v0zM1447 1416q17 -15 33 -32q225 -233 225 -577v-2q0 -346 -231 -585
q-236 -245 -590 -245q-338 0 -573 240q-234 238 -234 573q0 353 238 591q239 239 598 239q262 0 457 -139l15 6q72 41 87 89q-29 9 -53 33q-38 38 -38 92q0 55 38.5 93.5t93.5 38.5q54 0 92.5 -38.5t38.5 -93.5q0 -26 -9 -48q-1 -4 -1 -7q-14 -55 -53 -107q-29 -39 -72 -75
q-30 -26 -62 -46z" />
    <glyph glyph-name="uni1EE0" unicode="&#x1ee0;" 
d="M1504 799q0 273 -175 458q-176 187 -439 187q-260 0 -436 -188q-174 -186 -174 -459q0 -266 176 -454q178 -191 438 -191q263 0 438 188q172 185 172 457v2zM644 1716q38 170 160 170q56 0 121 -49q56 -39 90 -39q59 0 80 76l67 -10q-13 -69 -52 -116q-45 -52 -105 -52
q-56 0 -111 39q-65 47 -104 47q-53 0 -78 -74zM1447 1416q17 -15 33 -32q225 -233 225 -577v-2q0 -346 -231 -585q-236 -245 -590 -245q-338 0 -573 240q-234 238 -234 573q0 353 238 591q239 239 598 239q262 0 457 -139l15 6q72 41 87 89q-29 9 -53 33q-38 38 -38 92
q0 55 38.5 93.5t93.5 38.5q54 0 92.5 -38.5t38.5 -93.5q0 -26 -9 -48q-1 -4 -1 -7q-14 -55 -53 -107q-29 -39 -72 -75q-30 -26 -62 -46z" />
    <glyph glyph-name="uni1EE2" unicode="&#x1ee2;" 
d="M1504 799q0 273 -175 458q-176 187 -439 187q-260 0 -436 -188q-174 -186 -174 -459q0 -266 176 -454q178 -191 438 -191q263 0 438 188q172 185 172 457v2zM806 -219q0 80 88 80q82 0 82 -82q0 -86 -82 -86q-88 0 -88 86v2zM1447 1416q17 -15 33 -32q225 -233 225 -577
v-2q0 -346 -231 -585q-236 -245 -590 -245q-338 0 -573 240q-234 238 -234 573q0 353 238 591q239 239 598 239q262 0 457 -139l15 6q72 41 87 89q-29 9 -53 33q-38 38 -38 92q0 55 38.5 93.5t93.5 38.5q54 0 92.5 -38.5t38.5 -93.5q0 -26 -9 -48q-1 -4 -1 -7
q-14 -55 -53 -107q-29 -39 -72 -75q-30 -26 -62 -46z" />
    <glyph glyph-name="Ygrave" unicode="&#x1ef2;" horiz-adv-x="1198" 
d="M693 635v-635h-191v627l-333 617l-166 318l-15 35h215v-4q3 -7 13 -28q13 -27 34 -71l64 -126l286 -549h4q32 67 84 168l258 508l46 98v4h204l-14 -35q-17 -36 -50 -102q-44 -86 -115 -219q-84 -160 -204 -383zM705 1655l-314 188l68 109l287 -238z" />
    <glyph glyph-name="Yacute" unicode="&#xdd;" horiz-adv-x="1198" 
d="M693 635v-635h-191v627l-333 617l-166 318l-15 35h215v-4q3 -7 13 -28q13 -27 34 -71l64 -126l286 -549h4q32 67 84 168l258 508l46 98v4h204l-14 -35q-17 -36 -50 -102q-44 -86 -115 -219q-84 -160 -204 -383zM549 1706l289 238l68 -109l-316 -188z" />
    <glyph glyph-name="uni1EF6" unicode="&#x1ef6;" horiz-adv-x="1198" 
d="M693 635v-635h-191v627l-333 617l-166 318l-15 35h215v-4q3 -7 13 -28q13 -27 34 -71l64 -126l286 -549h4q32 67 84 168l258 508l46 98v4h204l-14 -35q-17 -36 -50 -102q-44 -86 -115 -219q-84 -160 -204 -383zM615 2105q26 0 48 -5q28 -6 49 -19q66 -42 66 -120
q0 -43 -22 -82q-8 -15 -23 -34q-10 -13 -27 -32q-34 -36 -46 -64q-10 -23 -12 -73h-83q1 59 13 91q14 37 52 78q28 31 41 55q14 25 14 52q0 41 -33 62q-21 12 -49 12q-15 0 -27 -3q-13 -2 -27 -9q-16 -8 -30 -18h-20l-3 74q31 19 58 26q30 9 60 9h1z" />
    <glyph glyph-name="uni1EF8" unicode="&#x1ef8;" horiz-adv-x="1198" 
d="M693 635v-635h-191v627l-333 617l-166 318l-15 35h215v-4q3 -7 13 -28q13 -27 34 -71l64 -126l286 -549h4q32 67 84 168l258 508l46 98v4h204l-14 -35q-17 -36 -50 -102q-44 -86 -115 -219q-84 -160 -204 -383zM368 1716q38 170 160 170q57 0 121 -49q57 -39 90 -39
q60 0 80 76l68 -10q-14 -69 -53 -116q-44 -52 -105 -52q-56 0 -111 39q-65 47 -104 47q-52 0 -78 -74z" />
    <glyph glyph-name="uni1EF4" unicode="&#x1ef4;" horiz-adv-x="1198" 
d="M693 635v-635h-191v627l-333 617l-166 318l-15 35h215v-4q3 -7 13 -28q13 -27 34 -71l64 -126l286 -549h4q32 67 84 168l258 508l46 98v4h204l-14 -35q-17 -36 -50 -102q-44 -86 -115 -219q-84 -160 -204 -383zM511 -219q0 80 88 80q82 0 82 -82q0 -86 -82 -86
q-88 0 -88 86v2z" />
    <glyph glyph-name="agrave" unicode="&#xe0;" horiz-adv-x="1355" 
d="M373 449q-47 -115 -86 -210l-65 -157l-8 -20q-2 -7 -6 -17l-17 -45h-197l147 352q32 76 68 163l463 1109h24l654 -1624h-209l-10 32l-166 417h-592zM903 608v6l-169 445q-39 104 -56 162h-4q-18 -56 -59 -162l-179 -451h467zM717 1688l-315 188l69 109l287 -238z" />
    <glyph glyph-name="aacute" unicode="&#xe1;" horiz-adv-x="1355" 
d="M373 449q-47 -115 -86 -210l-65 -157l-8 -20q-2 -7 -6 -17l-17 -45h-197l147 352q32 76 68 163l463 1109h24l654 -1624h-209l-10 32l-166 417h-592zM903 608v6l-169 445q-39 104 -56 162h-4q-18 -56 -59 -162l-179 -451h467zM604 1747l289 238l68 -109l-316 -188z" />
    <glyph glyph-name="uni1EA3" unicode="&#x1ea3;" horiz-adv-x="1355" 
d="M373 449q-47 -115 -86 -210l-65 -157l-8 -20q-2 -7 -6 -17l-17 -45h-197l147 352q32 76 68 163l463 1109h24l654 -1624h-209l-10 32l-166 417h-592zM903 608v6l-169 445q-39 104 -56 162h-4q-18 -56 -59 -162l-179 -451h467zM676 2131q26 0 48 -5q27 -6 48 -19
q66 -42 66 -120q0 -43 -21 -82q-9 -15 -24 -34q-10 -13 -27 -32q-33 -36 -45 -64q-10 -23 -12 -73h-83q1 59 13 91q14 37 52 78q28 31 41 55q13 25 13 52q0 41 -33 62q-20 12 -49 12q-15 0 -27 -3q-12 -2 -26 -9q-17 -8 -30 -18h-20l-4 74q31 19 59 26q29 9 60 9h1z" />
    <glyph glyph-name="atilde" unicode="&#xe3;" horiz-adv-x="1355" 
d="M373 449q-47 -115 -86 -210l-65 -157l-8 -20q-2 -7 -6 -17l-17 -45h-197l147 352q32 76 68 163l463 1109h24l654 -1624h-209l-10 32l-166 417h-592zM903 608v6l-169 445q-39 104 -56 162h-4q-18 -56 -59 -162l-179 -451h467zM434 1712q42 168 162 168q56 0 119 -47
q52 -39 90 -39q59 0 82 74l65 -10q-13 -69 -52 -116q-44 -52 -103 -52q-56 0 -111 39q-69 47 -104 47q-55 0 -80 -74z" />
    <glyph glyph-name="uni1EA1" unicode="&#x1ea1;" horiz-adv-x="1355" 
d="M373 449q-47 -115 -86 -210l-65 -157l-8 -20q-2 -7 -6 -17l-17 -45h-197l147 352q32 76 68 163l463 1109h24l654 -1624h-209l-10 32l-166 417h-592zM903 608v6l-169 445q-39 104 -56 162h-4q-18 -56 -59 -162l-179 -451h467zM585 -219q0 80 88 80q82 0 82 -82
q0 -86 -82 -86q-88 0 -88 86v2z" />
    <glyph glyph-name="acircumflex" unicode="&#xe2;" horiz-adv-x="1355" 
d="M373 449q-47 -115 -86 -210l-65 -157l-8 -20q-2 -7 -6 -17l-17 -45h-197l147 352q32 76 68 163l463 1109h24l654 -1624h-209l-10 32l-166 417h-592zM903 608v6l-169 445q-39 104 -56 162h-4q-18 -56 -59 -162l-179 -451h467zM883 1645l-195 133l-198 -133l-45 55l247 225
l238 -225z" />
    <glyph glyph-name="uni1EA7" unicode="&#x1ea7;" horiz-adv-x="1355" 
d="M373 449q-47 -115 -86 -210l-65 -157l-8 -20q-2 -7 -6 -17l-17 -45h-197l147 352q32 76 68 163l463 1109h24l654 -1624h-209l-10 32l-166 417h-592zM903 608v6l-169 445q-39 104 -56 162h-4q-18 -56 -59 -162l-179 -451h467zM847 1868l-315 188l69 109l287 -238z
M883 1645l-195 133l-198 -133l-45 55l247 225l238 -225z" />
    <glyph glyph-name="uni1EA5" unicode="&#x1ea5;" horiz-adv-x="1355" 
d="M373 449q-47 -115 -86 -210l-65 -157l-8 -20q-2 -7 -6 -17l-17 -45h-197l147 352q32 76 68 163l463 1109h24l654 -1624h-209l-10 32l-166 417h-592zM903 608v6l-169 445q-39 104 -56 162h-4q-18 -56 -59 -162l-179 -451h467zM492 1907l289 238l68 -109l-316 -188z
M883 1645l-195 133l-198 -133l-45 55l247 225l238 -225z" />
    <glyph glyph-name="uni1EA9" unicode="&#x1ea9;" horiz-adv-x="1355" 
d="M373 449q-47 -115 -86 -210l-65 -157l-8 -20q-2 -7 -6 -17l-17 -45h-197l147 352q32 76 68 163l463 1109h24l654 -1624h-209l-10 32l-166 417h-592zM903 608v6l-169 445q-39 104 -56 162h-4q-18 -56 -59 -162l-179 -451h467zM883 1645l-195 133l-198 -133l-45 55l247 225
l238 -225zM873 2266q26 0 48 -5q27 -6 48 -19q66 -42 66 -120q0 -43 -21 -82q-9 -15 -24 -34q-10 -13 -27 -32q-33 -36 -45 -64q-10 -23 -12 -73h-83q1 59 13 91q14 37 52 78q28 31 41 55q13 25 13 52q0 41 -33 62q-20 12 -49 12q-15 0 -27 -3q-12 -2 -26 -9q-17 -8 -30 -18
h-20l-4 74q31 19 59 26q29 9 60 9h1z" />
    <glyph glyph-name="uni1EAB" unicode="&#x1eab;" horiz-adv-x="1355" 
d="M373 449q-47 -115 -86 -210l-65 -157l-8 -20q-2 -7 -6 -17l-17 -45h-197l147 352q32 76 68 163l463 1109h24l654 -1624h-209l-10 32l-166 417h-592zM903 608v6l-169 445q-39 104 -56 162h-4q-18 -56 -59 -162l-179 -451h467zM509 1951q42 168 162 168q56 0 119 -47
q52 -39 90 -39q59 0 82 74l65 -10q-13 -69 -52 -116q-44 -52 -103 -52q-56 0 -111 39q-69 47 -104 47q-55 0 -80 -74zM883 1645l-195 133l-198 -133l-45 55l247 225l238 -225z" />
    <glyph glyph-name="uni1EAD" unicode="&#x1ead;" horiz-adv-x="1355" 
d="M373 449q-47 -115 -86 -210l-65 -157l-8 -20q-2 -7 -6 -17l-17 -45h-197l147 352q32 76 68 163l463 1109h24l654 -1624h-209l-10 32l-166 417h-592zM903 608v6l-169 445q-39 104 -56 162h-4q-18 -56 -59 -162l-179 -451h467zM585 -219q0 80 88 80q82 0 82 -82
q0 -86 -82 -86q-88 0 -88 86v2zM883 1645l-195 133l-198 -133l-45 55l247 225l238 -225z" />
    <glyph glyph-name="abreve" unicode="&#x103;" horiz-adv-x="1355" 
d="M373 449q-47 -115 -86 -210l-65 -157l-8 -20q-2 -7 -6 -17l-17 -45h-197l147 352q32 76 68 163l463 1109h24l654 -1624h-209l-10 32l-166 417h-592zM903 608v6l-169 445q-39 104 -56 162h-4q-18 -56 -59 -162l-179 -451h467zM538 1935q19 -125 133 -125q118 0 137 125h90
q-5 -91 -63 -155q-64 -72 -168 -72q-101 0 -162 72q-54 64 -59 155h92z" />
    <glyph glyph-name="uni1EB1" unicode="&#x1eb1;" horiz-adv-x="1355" 
d="M373 449q-47 -115 -86 -210l-65 -157l-8 -20q-2 -7 -6 -17l-17 -45h-197l147 352q32 76 68 163l463 1109h24l654 -1624h-209l-10 32l-166 417h-592zM903 608v6l-169 445q-39 104 -56 162h-4q-18 -56 -59 -162l-179 -451h467zM741 1917l-315 188l69 109l287 -238z
M538 1935q19 -125 133 -125q118 0 137 125h90q-5 -91 -63 -155q-64 -72 -168 -72q-101 0 -162 72q-54 64 -59 155h92z" />
    <glyph glyph-name="uni1EAF" unicode="&#x1eaf;" horiz-adv-x="1355" 
d="M373 449q-47 -115 -86 -210l-65 -157l-8 -20q-2 -7 -6 -17l-17 -45h-197l147 352q32 76 68 163l463 1109h24l654 -1624h-209l-10 32l-166 417h-592zM903 608v6l-169 445q-39 104 -56 162h-4q-18 -56 -59 -162l-179 -451h467zM581 1966l289 238l68 -109l-316 -188z
M538 1935q19 -125 133 -125q118 0 137 125h90q-5 -91 -63 -155q-64 -72 -168 -72q-101 0 -162 72q-54 64 -59 155h92z" />
    <glyph glyph-name="uni1EB3" unicode="&#x1eb3;" horiz-adv-x="1355" 
d="M373 449q-47 -115 -86 -210l-65 -157l-8 -20q-2 -7 -6 -17l-17 -45h-197l147 352q32 76 68 163l463 1109h24l654 -1624h-209l-10 32l-166 417h-592zM903 608v6l-169 445q-39 104 -56 162h-4q-18 -56 -59 -162l-179 -451h467zM538 1935q19 -125 133 -125q118 0 137 125h90
q-5 -91 -63 -155q-64 -72 -168 -72q-101 0 -162 72q-54 64 -59 155h92zM676 2337q26 0 48 -5q27 -6 48 -19q66 -42 66 -120q0 -43 -21 -82q-9 -15 -24 -34q-10 -13 -27 -32q-33 -36 -45 -64q-10 -23 -12 -73h-83q1 59 13 91q14 37 52 78q28 31 41 55q13 25 13 52
q0 41 -33 62q-20 12 -49 12q-15 0 -27 -3q-12 -2 -26 -9q-17 -8 -30 -18h-20l-4 74q31 19 59 26q29 9 60 9h1z" />
    <glyph glyph-name="uni1EB5" unicode="&#x1eb5;" horiz-adv-x="1355" 
d="M373 449q-47 -115 -86 -210l-65 -157l-8 -20q-2 -7 -6 -17l-17 -45h-197l147 352q32 76 68 163l463 1109h24l654 -1624h-209l-10 32l-166 417h-592zM903 608v6l-169 445q-39 104 -56 162h-4q-18 -56 -59 -162l-179 -451h467zM499 2000q42 168 162 168q56 0 119 -47
q52 -39 90 -39q59 0 82 74l65 -10q-13 -69 -52 -116q-44 -52 -103 -52q-56 0 -111 39q-69 47 -104 47q-55 0 -80 -74zM538 1935q19 -125 133 -125q118 0 137 125h90q-5 -91 -63 -155q-64 -72 -168 -72q-101 0 -162 72q-54 64 -59 155h92z" />
    <glyph glyph-name="uni1EB7" unicode="&#x1eb7;" horiz-adv-x="1355" 
d="M373 449q-47 -115 -86 -210l-65 -157l-8 -20q-2 -7 -6 -17l-17 -45h-197l147 352q32 76 68 163l463 1109h24l654 -1624h-209l-10 32l-166 417h-592zM903 608v6l-169 445q-39 104 -56 162h-4q-18 -56 -59 -162l-179 -451h467zM585 -219q0 80 88 80q82 0 82 -82
q0 -86 -82 -86q-88 0 -88 86v2zM538 1935q19 -125 133 -125q118 0 137 125h90q-5 -91 -63 -155q-64 -72 -168 -72q-101 0 -162 72q-54 64 -59 155h92z" />
    <glyph glyph-name="egrave" unicode="&#xe8;" horiz-adv-x="1003" 
d="M167 1597h723v-167h-533v-533h492v-164h-492v-563h555v-170h-745v1597zM599 1681l-315 187l67 108l289 -235z" />
    <glyph glyph-name="eacute" unicode="&#xe9;" horiz-adv-x="1003" 
d="M167 1597h723v-167h-533v-533h492v-164h-492v-563h555v-170h-745v1597zM398 1741l289 235l68 -108l-316 -187z" />
    <glyph glyph-name="uni1EBB" unicode="&#x1ebb;" horiz-adv-x="1003" 
d="M167 1597h723v-167h-533v-533h492v-164h-492v-563h555v-170h-745v1597zM541 2105q25 0 48 -5q27 -6 48 -19q66 -42 66 -120q0 -43 -21 -82q-9 -15 -24 -34q-10 -13 -27 -32q-34 -36 -45 -64q-10 -23 -12 -73h-84q2 59 14 91q14 37 52 78q28 31 41 55q13 25 13 52
q0 41 -33 62q-20 12 -49 12q-15 0 -27 -3q-13 -2 -26 -9q-17 -8 -30 -18h-20l-4 74q31 19 59 26q29 9 60 9h1z" />
    <glyph glyph-name="uni1EBD" unicode="&#x1ebd;" horiz-adv-x="1003" 
d="M167 1597h723v-167h-533v-533h492v-164h-492v-563h555v-170h-745v1597zM279 1712q42 168 162 168q56 0 119 -47q52 -39 90 -39q59 0 82 74l65 -10q-13 -69 -52 -116q-44 -52 -103 -52q-56 0 -111 39q-69 47 -104 47q-55 0 -80 -74z" />
    <glyph glyph-name="uni1EB9" unicode="&#x1eb9;" horiz-adv-x="1003" 
d="M167 1597h723v-167h-533v-533h492v-164h-492v-563h555v-170h-745v1597zM451 -219q0 80 88 80q82 0 82 -82q0 -86 -82 -86q-88 0 -88 86v2z" />
    <glyph glyph-name="ecircumflex" unicode="&#xea;" horiz-adv-x="1003" 
d="M167 1597h723v-167h-533v-533h492v-164h-492v-563h555v-170h-745v1597zM742 1671l-192 133l-201 -133l-43 55l248 226l238 -226z" />
    <glyph glyph-name="uni1EC1" unicode="&#x1ec1;" horiz-adv-x="1003" 
d="M167 1597h723v-167h-533v-533h492v-164h-492v-563h555v-170h-745v1597zM706 1895l-315 187l67 108l289 -235zM742 1671l-192 133l-201 -133l-43 55l248 226l238 -226z" />
    <glyph glyph-name="uni1EBF" unicode="&#x1ebf;" horiz-adv-x="1003" 
d="M167 1597h723v-167h-533v-533h492v-164h-492v-563h555v-170h-745v1597zM362 1955l289 235l68 -108l-316 -187zM742 1671l-192 133l-201 -133l-43 55l248 226l238 -226z" />
    <glyph glyph-name="uni1EC3" unicode="&#x1ec3;" horiz-adv-x="1003" 
d="M167 1597h723v-167h-533v-533h492v-164h-492v-563h555v-170h-745v1597zM737 2301q25 0 48 -5q27 -6 48 -19q66 -42 66 -120q0 -43 -21 -82q-9 -15 -24 -34q-10 -13 -27 -32q-34 -36 -45 -64q-10 -23 -12 -73h-84q2 59 14 91q14 37 52 78q28 31 41 55q13 25 13 52
q0 41 -33 62q-20 12 -49 12q-15 0 -27 -3q-13 -2 -26 -9q-17 -8 -30 -18h-20l-4 74q31 19 59 26q29 9 60 9h1zM742 1671l-192 133l-201 -133l-43 55l248 226l238 -226z" />
    <glyph glyph-name="uni1EC5" unicode="&#x1ec5;" horiz-adv-x="1003" 
d="M167 1597h723v-167h-533v-533h492v-164h-492v-563h555v-170h-745v1597zM358 1954q42 168 162 168q56 0 119 -47q52 -39 90 -39q59 0 82 74l65 -10q-13 -69 -52 -116q-44 -52 -103 -52q-56 0 -111 39q-69 47 -104 47q-55 0 -80 -74zM742 1671l-192 133l-201 -133l-43 55
l248 226l238 -226z" />
    <glyph glyph-name="uni1EC7" unicode="&#x1ec7;" horiz-adv-x="1003" 
d="M167 1597h723v-167h-533v-533h492v-164h-492v-563h555v-170h-745v1597zM451 -219q0 80 88 80q82 0 82 -82q0 -86 -82 -86q-88 0 -88 86v2zM742 1671l-192 133l-201 -133l-43 55l248 226l238 -226z" />
    <glyph glyph-name="igrave" unicode="&#xec;" horiz-adv-x="524" 
d="M358 0h-190v1597h190v-1597zM315 1681l-315 187l68 108l288 -235z" />
    <glyph glyph-name="iacute" unicode="&#xed;" horiz-adv-x="524" 
d="M358 0h-191v1597h191v-1597zM165 1741l289 235l67 -108l-315 -187z" />
    <glyph glyph-name="uni1EC9" unicode="&#x1ec9;" horiz-adv-x="524" 
d="M357 0h-190v1597h190v-1597zM272 2105q26 0 49 -5q27 -6 48 -19q66 -42 66 -120q0 -43 -22 -82q-8 -15 -23 -34q-10 -13 -27 -32q-34 -36 -46 -64q-10 -23 -12 -73h-83q2 59 14 91q14 37 52 78q28 31 40 55q14 25 14 52q0 41 -33 62q-20 12 -49 12q-15 0 -27 -3
q-13 -2 -26 -9q-17 -8 -31 -18h-20l-3 74q31 19 59 26q29 9 60 9v0z" />
    <glyph glyph-name="itilde" unicode="&#x129;" horiz-adv-x="524" 
d="M357 0h-190v1597h190v-1597zM19 1712q42 168 162 168q56 0 119 -47q51 -39 90 -39q59 0 82 74l65 -10q-13 -69 -52 -116q-44 -52 -104 -52q-55 0 -110 39q-69 47 -105 47q-54 0 -79 -74z" />
    <glyph glyph-name="uni1ECB" unicode="&#x1ecb;" horiz-adv-x="524" 
d="M357 0h-190v1597h190v-1597zM173 -219q0 80 88 80q82 0 82 -82q0 -86 -82 -86q-88 0 -88 86v2z" />
    <glyph glyph-name="ograve" unicode="&#xf2;" 
d="M1705 805q0 -346 -231 -585q-236 -245 -590 -245q-338 0 -573 240q-234 238 -234 573q0 353 238 591q239 239 598 239q340 0 567 -234q225 -233 225 -577v-2zM1504 799q0 273 -175 458q-176 187 -439 187q-260 0 -436 -188q-174 -186 -174 -459q0 -266 176 -454
q178 -191 438 -191q263 0 438 188q172 185 172 457v2zM951 1692l-315 186l68 109l288 -236z" />
    <glyph glyph-name="oacute" unicode="&#xf3;" 
d="M1705 805q0 -346 -231 -585q-236 -245 -590 -245q-338 0 -573 240q-234 238 -234 573q0 353 238 591q239 239 598 239q340 0 567 -234q225 -233 225 -577v-2zM1504 799q0 273 -175 458q-176 187 -439 187q-260 0 -436 -188q-174 -186 -174 -459q0 -266 176 -454
q178 -191 438 -191q263 0 438 188q172 185 172 457v2zM792 1751l286 236l68 -109l-313 -186z" />
    <glyph glyph-name="uni1ECF" unicode="&#x1ecf;" 
d="M1705 805q0 -346 -231 -585q-236 -245 -590 -245q-338 0 -573 240q-234 238 -234 573q0 353 238 591q239 239 598 239q340 0 567 -234q225 -233 225 -577v-2zM1504 799q0 273 -175 458q-176 187 -439 187q-260 0 -436 -188q-174 -186 -174 -459q0 -266 176 -454
q178 -191 438 -191q263 0 438 188q172 185 172 457v2zM869 2105q26 0 49 -5q27 -6 48 -19q66 -42 66 -120q0 -43 -22 -82q-8 -15 -23 -34q-10 -13 -27 -32q-34 -36 -46 -64q-10 -23 -11 -73h-84q2 59 14 91q14 37 52 78q28 31 40 55q14 25 14 52q0 41 -33 62q-20 12 -49 12
q-15 0 -27 -3q-13 -2 -26 -9q-17 -8 -30 -18h-20l-4 74q31 19 59 26q29 9 60 9v0z" />
    <glyph glyph-name="otilde" unicode="&#xf5;" 
d="M1705 805q0 -346 -231 -585q-236 -245 -590 -245q-338 0 -573 240q-234 238 -234 573q0 353 238 591q239 239 598 239q340 0 567 -234q225 -233 225 -577v-2zM1504 799q0 273 -175 458q-176 187 -439 187q-260 0 -436 -188q-174 -186 -174 -459q0 -266 176 -454
q178 -191 438 -191q263 0 438 188q172 185 172 457v2zM644 1716q38 170 160 170q56 0 121 -49q56 -39 90 -39q59 0 80 76l67 -10q-13 -69 -52 -116q-45 -52 -105 -52q-56 0 -111 39q-65 47 -104 47q-53 0 -78 -74z" />
    <glyph glyph-name="uni1ECD" unicode="&#x1ecd;" 
d="M1705 805q0 -346 -231 -585q-236 -245 -590 -245q-338 0 -573 240q-234 238 -234 573q0 353 238 591q239 239 598 239q340 0 567 -234q225 -233 225 -577v-2zM1504 799q0 273 -175 458q-176 187 -439 187q-260 0 -436 -188q-174 -186 -174 -459q0 -266 176 -454
q178 -191 438 -191q263 0 438 188q172 185 172 457v2zM806 -219q0 80 88 80q82 0 82 -82q0 -86 -82 -86q-88 0 -88 86v2z" />
    <glyph glyph-name="ocircumflex" unicode="&#xf4;" 
d="M1705 805q0 -346 -231 -585q-236 -245 -590 -245q-338 0 -573 240q-234 238 -234 573q0 353 238 591q239 239 598 239q340 0 567 -234q225 -233 225 -577v-2zM1504 799q0 273 -175 458q-176 187 -439 187q-260 0 -436 -188q-174 -186 -174 -459q0 -266 176 -454
q178 -191 438 -191q263 0 438 188q172 185 172 457v2zM1095 1677l-195 135l-198 -133l-45 56l247 223l238 -225z" />
    <glyph glyph-name="uni1ED3" unicode="&#x1ed3;" 
d="M1705 805q0 -346 -231 -585q-236 -245 -590 -245q-338 0 -573 240q-234 238 -234 573q0 353 238 591q239 239 598 239q340 0 567 -234q225 -233 225 -577v-2zM1504 799q0 273 -175 458q-176 187 -439 187q-260 0 -436 -188q-174 -186 -174 -459q0 -266 176 -454
q178 -191 438 -191q263 0 438 188q172 185 172 457v2zM1067 1897l-315 186l68 109l288 -236zM1095 1677l-195 135l-198 -133l-45 56l247 223l238 -225z" />
    <glyph glyph-name="uni1ED1" unicode="&#x1ed1;" 
d="M1705 805q0 -346 -231 -585q-236 -245 -590 -245q-338 0 -573 240q-234 238 -234 573q0 353 238 591q239 239 598 239q340 0 567 -234q225 -233 225 -577v-2zM1504 799q0 273 -175 458q-176 187 -439 187q-260 0 -436 -188q-174 -186 -174 -459q0 -266 176 -454
q178 -191 438 -191q263 0 438 188q172 185 172 457v2zM712 1965l286 236l68 -109l-313 -186zM1095 1677l-195 135l-198 -133l-45 56l247 223l238 -225z" />
    <glyph glyph-name="uni1ED5" unicode="&#x1ed5;" 
d="M1705 805q0 -346 -231 -585q-236 -245 -590 -245q-338 0 -573 240q-234 238 -234 573q0 353 238 591q239 239 598 239q340 0 567 -234q225 -233 225 -577v-2zM1504 799q0 273 -175 458q-176 187 -439 187q-260 0 -436 -188q-174 -186 -174 -459q0 -266 176 -454
q178 -191 438 -191q263 0 438 188q172 185 172 457v2zM1109 2293q26 0 49 -5q27 -6 48 -19q66 -42 66 -120q0 -43 -22 -82q-8 -15 -23 -34q-10 -13 -27 -32q-34 -36 -46 -64q-10 -23 -11 -73h-84q2 59 14 91q14 37 52 78q28 31 40 55q14 25 14 52q0 41 -33 62q-20 12 -49 12
q-15 0 -27 -3q-13 -2 -26 -9q-17 -8 -30 -18h-20l-4 74q31 19 59 26q29 9 60 9v0zM1094 1677l-195 135l-198 -133l-45 56l248 223l237 -225z" />
    <glyph glyph-name="uni1ED7" unicode="&#x1ed7;" 
d="M1705 805q0 -346 -231 -585q-236 -245 -590 -245q-338 0 -573 240q-234 238 -234 573q0 353 238 591q239 239 598 239q340 0 567 -234q225 -233 225 -577v-2zM1504 799q0 273 -175 458q-176 187 -439 187q-260 0 -436 -188q-174 -186 -174 -459q0 -266 176 -454
q178 -191 438 -191q263 0 438 188q172 185 172 457v2zM707 1966q38 170 160 170q56 0 121 -49q56 -39 90 -39q59 0 80 76l67 -10q-13 -69 -52 -116q-45 -52 -105 -52q-56 0 -111 39q-65 47 -104 47q-53 0 -78 -74zM1095 1677l-195 135l-198 -133l-45 56l247 223l238 -225z
" />
    <glyph glyph-name="uni1ED9" unicode="&#x1ed9;" 
d="M1705 805q0 -346 -231 -585q-236 -245 -590 -245q-338 0 -573 240q-234 238 -234 573q0 353 238 591q239 239 598 239q340 0 567 -234q225 -233 225 -577v-2zM1504 799q0 273 -175 458q-176 187 -439 187q-260 0 -436 -188q-174 -186 -174 -459q0 -266 176 -454
q178 -191 438 -191q263 0 438 188q172 185 172 457v2zM806 -219q0 80 88 80q82 0 82 -82q0 -86 -82 -86q-88 0 -88 86v2zM1094 1677l-195 135l-198 -133l-45 56l248 223l237 -225z" />
    <glyph glyph-name="glyph216" unicode="&#xf9;" horiz-adv-x="1509" 
d="M143 1597h193v-907q0 -253 75 -371q105 -167 332 -167q226 0 340 151q92 128 92 404v890h187v-899q0 -323 -127 -493q-158 -230 -494 -230q-347 0 -500 250q-98 159 -98 457v915zM802 1655l-313 188l68 109l286 -238z" />
    <glyph glyph-name="glyph217" unicode="&#xfa;" horiz-adv-x="1509" 
d="M143 1597h193v-907q0 -253 75 -371q105 -167 332 -167q226 0 340 151q92 128 92 404v890h187v-899q0 -323 -127 -493q-158 -230 -494 -230q-347 0 -500 250q-98 159 -98 457v915zM686 1714l288 238l68 -109l-315 -188z" />
    <glyph glyph-name="uni1EE7" unicode="&#x1ee7;" horiz-adv-x="1509" 
d="M143 1597h193v-907q0 -253 75 -371q105 -167 332 -167q226 0 340 151q92 128 92 404v890h187v-899q0 -323 -127 -493q-158 -230 -494 -230q-347 0 -500 250q-98 159 -98 457v915zM731 2105q26 0 48 -5q27 -6 48 -19q66 -42 66 -120q0 -43 -21 -82q-9 -15 -24 -34
q-10 -13 -27 -32q-33 -36 -45 -64q-10 -23 -12 -73h-83q1 59 13 91q14 37 52 78q28 31 41 55q13 25 13 52q0 41 -33 62q-20 12 -49 12q-15 0 -27 -3q-12 -2 -26 -9q-17 -8 -30 -18h-20l-4 74q31 19 59 26q29 9 60 9h1z" />
    <glyph glyph-name="utilde" unicode="&#x169;" horiz-adv-x="1509" 
d="M143 1597h193v-907q0 -253 75 -371q105 -167 332 -167q226 0 340 151q92 128 92 404v890h187v-899q0 -323 -127 -493q-158 -230 -494 -230q-347 0 -500 250q-98 159 -98 457v915zM493 1716q38 170 160 170q56 0 121 -49q56 -39 90 -39q59 0 80 76l67 -10
q-13 -69 -52 -116q-45 -52 -105 -52q-56 0 -111 39q-65 47 -104 47q-53 0 -78 -74z" />
    <glyph glyph-name="uni1EE5" unicode="&#x1ee5;" horiz-adv-x="1509" 
d="M143 1597h193v-907q0 -253 75 -371q105 -167 332 -167q226 0 340 151q92 128 92 404v890h187v-899q0 -323 -127 -493q-158 -230 -494 -230q-347 0 -500 250q-98 159 -98 457v915zM667 -219q0 80 88 80q82 0 82 -82q0 -86 -82 -86q-88 0 -88 86v2z" />
    <glyph glyph-name="uhorn" unicode="&#x1b0;" horiz-adv-x="1509" 
d="M143 1597h193v-907q0 -253 75 -371q105 -167 332 -167q226 0 340 151q92 128 92 404v890h187v-899q0 -323 -127 -493q-158 -230 -494 -230q-347 0 -500 250q-98 159 -98 457v915zM1591 1651q-1 -4 -1 -7q-14 -55 -53 -107q-29 -39 -72 -75q-73 -63 -153 -88l-39 83l68 28
q72 41 87 89q-29 9 -53 33q-38 38 -38 92q0 55 38.5 93.5t93.5 38.5q54 0 92.5 -38.5t38.5 -93.5q0 -26 -9 -48z" />
    <glyph glyph-name="uni1EEB" unicode="&#x1eeb;" horiz-adv-x="1509" 
d="M802 1655l-313 188l68 109l286 -238zM1362 1394v-696q0 -323 -127 -493q-158 -230 -494 -230q-347 0 -500 250q-98 159 -98 457v915h193v-907q0 -253 75 -371q105 -167 332 -167q226 0 340 151q92 128 92 404v890h187v-99q53 35 66 76q-29 9 -53 33q-38 38 -38 92
q0 55 38.5 93.5t93.5 38.5q54 0 92.5 -38.5t38.5 -93.5q0 -26 -9 -48q-1 -4 -1 -7q-14 -55 -53 -107q-29 -39 -72 -75q-50 -43 -103 -68z" />
    <glyph glyph-name="uni1EE9" unicode="&#x1ee9;" horiz-adv-x="1509" 
d="M686 1714l288 238l68 -109l-315 -188zM1362 1394v-696q0 -323 -127 -493q-158 -230 -494 -230q-347 0 -500 250q-98 159 -98 457v915h193v-907q0 -253 75 -371q105 -167 332 -167q226 0 340 151q92 128 92 404v890h187v-99q53 35 66 76q-29 9 -53 33q-38 38 -38 92
q0 55 38.5 93.5t93.5 38.5q54 0 92.5 -38.5t38.5 -93.5q0 -26 -9 -48q-1 -4 -1 -7q-14 -55 -53 -107q-29 -39 -72 -75q-50 -43 -103 -68z" />
    <glyph glyph-name="uni1EED" unicode="&#x1eed;" horiz-adv-x="1509" 
d="M731 2105q26 0 48 -5q27 -6 48 -19q66 -42 66 -120q0 -43 -21 -82q-9 -15 -24 -34q-10 -13 -27 -32q-33 -36 -45 -64q-10 -23 -12 -73h-83q1 59 13 91q14 37 52 78q28 31 41 55q13 25 13 52q0 41 -33 62q-20 12 -49 12q-15 0 -27 -3q-12 -2 -26 -9q-17 -8 -30 -18h-20
l-4 74q31 19 59 26q29 9 60 9h1zM1362 1394v-696q0 -323 -127 -493q-158 -230 -494 -230q-347 0 -500 250q-98 159 -98 457v915h193v-907q0 -253 75 -371q105 -167 332 -167q226 0 340 151q92 128 92 404v890h187v-99q53 35 66 76q-29 9 -53 33q-38 38 -38 92
q0 55 38.5 93.5t93.5 38.5q54 0 92.5 -38.5t38.5 -93.5q0 -26 -9 -48q-1 -4 -1 -7q-14 -55 -53 -107q-29 -39 -72 -75q-50 -43 -103 -68z" />
    <glyph glyph-name="uni1EEF" unicode="&#x1eef;" horiz-adv-x="1509" 
d="M493 1716q38 170 160 170q56 0 121 -49q56 -39 90 -39q59 0 80 76l67 -10q-13 -69 -52 -116q-45 -52 -105 -52q-56 0 -111 39q-65 47 -104 47q-53 0 -78 -74zM1362 1394v-696q0 -323 -127 -493q-158 -230 -494 -230q-347 0 -500 250q-98 159 -98 457v915h193v-907
q0 -253 75 -371q105 -167 332 -167q226 0 340 151q92 128 92 404v890h187v-99q53 35 66 76q-29 9 -53 33q-38 38 -38 92q0 55 38.5 93.5t93.5 38.5q54 0 92.5 -38.5t38.5 -93.5q0 -26 -9 -48q-1 -4 -1 -7q-14 -55 -53 -107q-29 -39 -72 -75q-50 -43 -103 -68z" />
    <glyph glyph-name="uni1EF1" unicode="&#x1ef1;" horiz-adv-x="1509" 
d="M667 -219q0 80 88 80q82 0 82 -82q0 -86 -82 -86q-88 0 -88 86v2zM1362 1394v-696q0 -323 -127 -493q-158 -230 -494 -230q-347 0 -500 250q-98 159 -98 457v915h193v-907q0 -253 75 -371q105 -167 332 -167q226 0 340 151q92 128 92 404v890h187v-99q53 35 66 76
q-29 9 -53 33q-38 38 -38 92q0 55 38.5 93.5t93.5 38.5q54 0 92.5 -38.5t38.5 -93.5q0 -26 -9 -48q-1 -4 -1 -7q-14 -55 -53 -107q-29 -39 -72 -75q-50 -43 -103 -68z" />
    <glyph glyph-name="ohorn" unicode="&#x1a1;" 
d="M1705 805q0 -346 -231 -585q-236 -245 -590 -245q-338 0 -573 240q-234 238 -234 573q0 353 238 591q239 239 598 239q340 0 567 -234q225 -233 225 -577v-2zM1504 799q0 273 -175 458q-176 187 -439 187q-260 0 -436 -188q-174 -186 -174 -459q0 -266 176 -454
q178 -191 438 -191q263 0 438 188q172 185 172 457v2zM1635 1651q-1 -4 -1 -7q-14 -55 -53 -107q-29 -39 -72 -75q-73 -63 -153 -88l-39 83l68 28q72 41 87 89q-29 9 -53 33q-38 38 -38 92q0 55 38.5 93.5t93.5 38.5q54 0 92.5 -38.5t38.5 -93.5q0 -26 -9 -48z" />
    <glyph glyph-name="uni1EDD" unicode="&#x1edd;" 
d="M1504 799q0 273 -175 458q-176 187 -439 187q-260 0 -436 -188q-174 -186 -174 -459q0 -266 176 -454q178 -191 438 -191q263 0 438 188q172 185 172 457v2zM951 1692l-315 186l68 109l288 -236zM1447 1416q17 -15 33 -32q225 -233 225 -577v-2q0 -346 -231 -585
q-236 -245 -590 -245q-338 0 -573 240q-234 238 -234 573q0 353 238 591q239 239 598 239q262 0 457 -139l15 6q72 41 87 89q-29 9 -53 33q-38 38 -38 92q0 55 38.5 93.5t93.5 38.5q54 0 92.5 -38.5t38.5 -93.5q0 -26 -9 -48q-1 -4 -1 -7q-14 -55 -53 -107q-29 -39 -72 -75
q-30 -26 -62 -46z" />
    <glyph glyph-name="uni1EDB" unicode="&#x1edb;" 
d="M1504 799q0 273 -175 458q-176 187 -439 187q-260 0 -436 -188q-174 -186 -174 -459q0 -266 176 -454q178 -191 438 -191q263 0 438 188q172 185 172 457v2zM792 1751l286 236l68 -109l-313 -186zM1447 1416q17 -15 33 -32q225 -233 225 -577v-2q0 -346 -231 -585
q-236 -245 -590 -245q-338 0 -573 240q-234 238 -234 573q0 353 238 591q239 239 598 239q262 0 457 -139l15 6q72 41 87 89q-29 9 -53 33q-38 38 -38 92q0 55 38.5 93.5t93.5 38.5q54 0 92.5 -38.5t38.5 -93.5q0 -26 -9 -48q-1 -4 -1 -7q-14 -55 -53 -107q-29 -39 -72 -75
q-30 -26 -62 -46z" />
    <glyph glyph-name="uni1EDF" unicode="&#x1edf;" 
d="M1504 799q0 273 -175 458q-176 187 -439 187q-260 0 -436 -188q-174 -186 -174 -459q0 -266 176 -454q178 -191 438 -191q263 0 438 188q172 185 172 457v2zM869 2105q26 0 49 -5q27 -6 48 -19q66 -42 66 -120q0 -43 -22 -82q-8 -15 -23 -34q-10 -13 -27 -32
q-34 -36 -46 -64q-10 -23 -11 -73h-84q2 59 14 91q14 37 52 78q28 31 40 55q14 25 14 52q0 41 -33 62q-20 12 -49 12q-15 0 -27 -3q-13 -2 -26 -9q-17 -8 -30 -18h-20l-4 74q31 19 59 26q29 9 60 9v0zM1447 1416q17 -15 33 -32q225 -233 225 -577v-2q0 -346 -231 -585
q-236 -245 -590 -245q-338 0 -573 240q-234 238 -234 573q0 353 238 591q239 239 598 239q262 0 457 -139l15 6q72 41 87 89q-29 9 -53 33q-38 38 -38 92q0 55 38.5 93.5t93.5 38.5q54 0 92.5 -38.5t38.5 -93.5q0 -26 -9 -48q-1 -4 -1 -7q-14 -55 -53 -107q-29 -39 -72 -75
q-30 -26 -62 -46z" />
    <glyph glyph-name="uni1EE1" unicode="&#x1ee1;" 
d="M1504 799q0 273 -175 458q-176 187 -439 187q-260 0 -436 -188q-174 -186 -174 -459q0 -266 176 -454q178 -191 438 -191q263 0 438 188q172 185 172 457v2zM644 1716q38 170 160 170q56 0 121 -49q56 -39 90 -39q59 0 80 76l67 -10q-13 -69 -52 -116q-45 -52 -105 -52
q-56 0 -111 39q-65 47 -104 47q-53 0 -78 -74zM1447 1416q17 -15 33 -32q225 -233 225 -577v-2q0 -346 -231 -585q-236 -245 -590 -245q-338 0 -573 240q-234 238 -234 573q0 353 238 591q239 239 598 239q262 0 457 -139l15 6q72 41 87 89q-29 9 -53 33q-38 38 -38 92
q0 55 38.5 93.5t93.5 38.5q54 0 92.5 -38.5t38.5 -93.5q0 -26 -9 -48q-1 -4 -1 -7q-14 -55 -53 -107q-29 -39 -72 -75q-30 -26 -62 -46z" />
    <glyph glyph-name="uni1EE3" unicode="&#x1ee3;" 
d="M1504 799q0 273 -175 458q-176 187 -439 187q-260 0 -436 -188q-174 -186 -174 -459q0 -266 176 -454q178 -191 438 -191q263 0 438 188q172 185 172 457v2zM806 -219q0 80 88 80q82 0 82 -82q0 -86 -82 -86q-88 0 -88 86v2zM1447 1416q17 -15 33 -32q225 -233 225 -577
v-2q0 -346 -231 -585q-236 -245 -590 -245q-338 0 -573 240q-234 238 -234 573q0 353 238 591q239 239 598 239q262 0 457 -139l15 6q72 41 87 89q-29 9 -53 33q-38 38 -38 92q0 55 38.5 93.5t93.5 38.5q54 0 92.5 -38.5t38.5 -93.5q0 -26 -9 -48q-1 -4 -1 -7
q-14 -55 -53 -107q-29 -39 -72 -75q-30 -26 -62 -46z" />
    <glyph glyph-name="ygrave" unicode="&#x1ef3;" horiz-adv-x="1198" 
d="M693 635v-635h-191v627l-333 617l-166 318l-15 35h215v-4q3 -7 13 -28q13 -27 34 -71l64 -126l286 -549h4q32 67 84 168l258 508l46 98v4h204l-14 -35q-17 -36 -50 -102q-44 -86 -115 -219q-84 -160 -204 -383zM705 1655l-314 188l68 109l287 -238z" />
    <glyph glyph-name="glyph234" unicode="&#xfd;" horiz-adv-x="1198" 
d="M693 635v-635h-191v627l-333 617l-166 318l-15 35h215v-4q3 -7 13 -28q13 -27 34 -71l64 -126l286 -549h4q32 67 84 168l258 508l46 98v4h204l-14 -35q-17 -36 -50 -102q-44 -86 -115 -219q-84 -160 -204 -383zM549 1706l289 238l68 -109l-316 -188z" />
    <glyph glyph-name="uni1EF7" unicode="&#x1ef7;" horiz-adv-x="1198" 
d="M693 635v-635h-191v627l-333 617l-166 318l-15 35h215v-4q3 -7 13 -28q13 -27 34 -71l64 -126l286 -549h4q32 67 84 168l258 508l46 98v4h204l-14 -35q-17 -36 -50 -102q-44 -86 -115 -219q-84 -160 -204 -383zM615 2105q26 0 48 -5q28 -6 49 -19q66 -42 66 -120
q0 -43 -22 -82q-8 -15 -23 -34q-10 -13 -27 -32q-34 -36 -46 -64q-10 -23 -12 -73h-83q1 59 13 91q14 37 52 78q28 31 41 55q14 25 14 52q0 41 -33 62q-21 12 -49 12q-15 0 -27 -3q-13 -2 -27 -9q-16 -8 -30 -18h-20l-3 74q31 19 58 26q30 9 60 9h1z" />
    <glyph glyph-name="uni1EF9" unicode="&#x1ef9;" horiz-adv-x="1198" 
d="M693 635v-635h-191v627l-333 617l-166 318l-15 35h215v-4q3 -7 13 -28q13 -27 34 -71l64 -126l286 -549h4q32 67 84 168l258 508l46 98v4h204l-14 -35q-17 -36 -50 -102q-44 -86 -115 -219q-84 -160 -204 -383zM368 1716q38 170 160 170q57 0 121 -49q57 -39 90 -39
q60 0 80 76l68 -10q-14 -69 -53 -116q-44 -52 -105 -52q-56 0 -111 39q-65 47 -104 47q-52 0 -78 -74z" />
    <glyph glyph-name="uni1EF5" unicode="&#x1ef5;" horiz-adv-x="1198" 
d="M693 635v-635h-191v627l-333 617l-166 318l-15 35h215v-4q3 -7 13 -28q13 -27 34 -71l64 -126l286 -549h4q32 67 84 168l258 508l46 98v4h204l-14 -35q-17 -36 -50 -102q-44 -86 -115 -219q-84 -160 -204 -383zM511 -219q0 80 88 80q82 0 82 -82q0 -86 -82 -86
q-88 0 -88 86v2z" />
    <glyph glyph-name="divide" unicode="&#xf7;" horiz-adv-x="1706" 
 />
    <glyph glyph-name="ugrave" horiz-adv-x="582" 
 />
    <glyph glyph-name="uacute" horiz-adv-x="580" 
 />
    <glyph glyph-name="yacute" horiz-adv-x="629" 
 />
    <glyph glyph-name="Ccaron" unicode="&#x10c;" horiz-adv-x="1274" 
 />
    <glyph glyph-name="ccaron" unicode="&#x10d;" horiz-adv-x="922" 
 />
    <glyph glyph-name="Dslash" unicode="&#x110;" horiz-adv-x="1460" 
d="M1183 825q0 167 -76 303q-60 108 -159 185q-79 61 -202 93q-105 28 -212 28q-76 0 -149 -7v-555h380v-112h-380v-576q0 -8 8 -10q8 -1 27 -3q16 -1 38 -2q40 -1 74 -1q134 0 251 40q126 44 212 130q91 92 136 202q52 124 52 283v2zM1382 829q0 -210 -74 -377
q-65 -146 -182 -249q-129 -118 -294 -168q-138 -41 -327 -41q-82 0 -180 4l-131 8v754h-174v112h174v719l226 14l92 3q360 0 573 -162q134 -94 213 -252q84 -167 84 -363v-2z" />
    <glyph glyph-name="dcroat" unicode="&#x111;" horiz-adv-x="1460" 
d="M1183 825q0 167 -76 303q-60 108 -159 185q-79 61 -202 93q-105 28 -212 28q-76 0 -149 -7v-555h380v-112h-380v-576q0 -8 8 -10q8 -1 27 -3q16 -1 38 -2q40 -1 74 -1q134 0 251 40q126 44 212 130q91 92 136 202q52 124 52 283v2zM1382 829q0 -210 -74 -377
q-65 -146 -182 -249q-129 -118 -294 -168q-138 -41 -327 -41q-82 0 -180 4l-131 8v754h-174v112h174v719l226 14l92 3q360 0 573 -162q134 -94 213 -252q84 -167 84 -363v-2z" />
    <glyph glyph-name="quoteleft" unicode="&#x2018;" horiz-adv-x="403" 
d="M198 1139q-117 0 -117 145q0 57 25 117q19 47 51 90q55 78 127 121l30 -33q-12 -11 -27 -31l-28 -39q-43 -70 -43 -120q0 -20 21 -23q77 -16 77 -104q0 -123 -114 -123h-2z" />
    <glyph glyph-name="quoteright" unicode="&#x2019;" horiz-adv-x="403" 
d="M198 1612q116 0 116 -146q0 -57 -24 -117q-20 -47 -51 -89q-55 -78 -127 -121l-31 32q12 11 28 31l27 39q43 71 43 121q0 20 -20 22q-78 16 -78 105q0 123 115 123h2z" />
    <glyph glyph-name="quotedblleft" unicode="&#x201c;" horiz-adv-x="737" 
d="M198 1139q-117 0 -117 145q0 57 25 117q19 47 51 90q55 78 127 121l30 -33q-12 -11 -27 -31l-28 -39q-43 -70 -43 -120q0 -20 21 -23q77 -16 77 -104q0 -123 -114 -123h-2zM530 1139q-117 0 -117 145q0 57 25 117q19 47 51 90q55 78 127 121l30 -33q-23 -23 -55 -70
q-43 -70 -43 -120q0 -20 22 -23q78 -16 78 -104q0 -123 -116 -123h-2z" />
    <glyph glyph-name="quotedblright" unicode="&#x201d;" horiz-adv-x="737" 
d="M205 1606q116 0 116 -146q0 -56 -24 -117q-19 -45 -49 -90q-59 -79 -129 -120l-29 32q11 11 26 31l27 39q43 71 43 121q0 16 -20 22q-78 16 -78 105q0 123 115 123h2zM537 1606q118 0 118 -146q0 -56 -25 -117q-19 -44 -50 -90q-62 -82 -130 -120l-28 32q23 23 55 70
q41 67 41 121q0 17 -20 22q-78 17 -78 105q0 123 114 123h3z" />
    <glyph glyph-name="ellipsis" unicode="&#x2026;" horiz-adv-x="2048" 
d="M344 219q119 0 119 -123q0 -119 -121 -119t-121 119q0 123 121 123h2zM1026 219q119 0 119 -123q0 -119 -121 -119t-121 119q0 123 121 123h2zM1710 219q119 0 119 -123q0 -119 -121 -119q-123 0 -123 119q0 123 123 123h2z" />
  </font>
</defs>
</svg>
